<svg width="608" height="553" viewBox="0 0 608 553" fill="none" xmlns="http://www.w3.org/2000/svg">
<g filter="url(#filter0_d_3_6503)">
<path d="M583.436 373.928C580.139 368.189 572.817 366.203 567.072 369.49L521.968 395.295C517.375 397.923 515.046 403.248 516.233 408.404L520.095 425.175L520.578 427.271L520.639 427.533L520.646 427.566L520.647 427.57L520.647 427.571L520.647 427.571L520.648 427.572L520.648 427.573C526.294 431.244 531.221 431.204 534.308 429.976L536.659 436.073L559.341 427.325C561.619 426.447 563.575 424.895 564.947 422.876L585.987 391.929C588.57 388.13 588.757 383.188 586.468 379.204L583.436 373.928Z" fill="#64270E" stroke="#FEFEFE" stroke-width="24" stroke-linejoin="round"/>
<path d="M459.139 299.162C462.675 298.869 466.159 300.156 468.656 302.676L566.588 401.544C568.92 403.898 570.174 407.112 570.054 410.423C569.934 413.735 568.45 416.849 565.954 419.028L558.062 409.989C565.954 419.028 565.949 419.033 565.944 419.037L565.933 419.047L565.907 419.069L565.842 419.125C565.792 419.168 565.73 419.221 565.657 419.283C565.509 419.408 565.312 419.571 565.069 419.769C564.582 420.165 563.905 420.7 563.048 421.342C561.336 422.625 558.893 424.344 555.8 426.235C549.64 430 540.744 434.541 529.788 437.603C507.471 443.84 477.156 443.708 445.487 420.043L459.139 299.162ZM459.139 299.162L390.411 304.859C386.647 305.171 383.25 307.237 381.241 310.435M459.139 299.162L381.241 310.435M381.241 310.435C379.232 313.633 378.846 317.59 380.198 321.116M381.241 310.435L380.198 321.116M380.198 321.116C387.669 340.593 398.942 361.418 410.612 379.083M380.198 321.116L410.612 379.083M410.612 379.083C422.076 396.433 434.776 412.04 445.487 420.043L410.612 379.083Z" fill="#64270E" stroke="#FEFEFE" stroke-width="24" stroke-linejoin="round"/>
<path d="M459.964 311.651C457.456 308.823 453.761 307.342 449.994 307.655L381.26 313.357C378.537 313.582 375.972 314.731 373.99 316.613C347.098 342.142 349.594 376.911 359.041 403.95C363.842 417.694 370.683 430.352 377.511 440.483C384.177 450.375 391.437 458.755 397.493 463.281L397.493 463.281C431.911 489.003 470.526 475.769 496.999 459.913C510.594 451.771 522.175 442.301 530.304 434.943C534.388 431.247 537.649 428.04 539.909 425.735C541.04 424.581 541.923 423.651 542.536 422.995C542.843 422.666 543.082 422.406 543.251 422.221C543.336 422.129 543.403 422.055 543.452 422L543.513 421.933L543.533 421.911L543.541 421.902C543.544 421.899 543.546 421.896 534.606 413.892L543.546 421.896C547.611 417.355 547.627 410.489 543.583 405.929L459.964 311.651Z" fill="#64270E" stroke="#FEFEFE" stroke-width="24" stroke-linejoin="round"/>
<path d="M452.665 301.579C456.418 301.11 460.172 302.439 462.795 305.165L554.236 400.165C558.62 404.72 558.719 411.894 554.462 416.568L545.59 408.487C554.462 416.568 554.458 416.573 554.453 416.578L554.443 416.589L554.419 416.615L554.359 416.679C554.314 416.728 554.259 416.787 554.192 416.858C554.06 416.998 553.884 417.181 553.667 417.403C553.233 417.845 552.63 418.442 551.866 419.159C550.34 420.59 548.153 422.512 545.36 424.642C539.805 428.878 531.667 434.073 521.395 437.771C500.232 445.388 471.231 446.119 439.507 422.412L452.665 301.579ZM452.665 301.579L385.713 309.928C382.052 310.384 378.804 312.5 376.906 315.664M452.665 301.579L376.906 315.664M376.906 315.664C375.009 318.828 374.672 322.689 375.994 326.134M376.906 315.664L375.994 326.134M375.994 326.134C383.451 345.57 394.265 365.728 405.518 382.771M375.994 326.134L405.518 382.771M405.518 382.771C416.585 399.533 428.829 414.433 439.506 422.411L405.518 382.771Z" fill="#C93434" stroke="#FEFEFE" stroke-width="24" stroke-linejoin="round"/>
<path d="M454.267 346.126C452.555 343.777 450.047 342.129 447.212 341.49L398.795 330.569C394.419 329.582 389.858 331.118 386.971 334.551C384.084 337.984 383.352 342.741 385.075 346.883C399.011 380.395 421.032 409.872 437.958 422.52C460.659 439.484 483.632 443.892 501.864 442.172C506.159 441.766 509.905 439.087 511.677 435.155C513.449 431.222 512.974 426.64 510.433 423.155L454.267 346.126Z" fill="#64270E" stroke="#FEFEFE" stroke-width="24" stroke-linejoin="round"/>
<path d="M563.859 389.66C560.585 383.951 553.323 381.943 547.581 385.161L478.025 424.148C473.376 426.753 471.003 432.113 472.198 437.307C473.984 445.068 478.33 451.078 484.889 454.362C490.843 457.344 497.078 457.29 501.583 456.682C506.237 456.053 510.431 454.642 513.288 453.509C514.759 452.926 515.982 452.374 516.86 451.954C517.168 451.808 517.437 451.676 517.662 451.563L539.752 443.05C542.032 442.172 543.989 440.619 545.362 438.599L566.397 407.649C568.978 403.853 569.166 398.917 566.883 394.935L563.859 389.66Z" fill="#64270E" stroke="#FEFEFE" stroke-width="24" stroke-linejoin="round"/>
<path d="M541.233 409.78C537.967 404.088 530.735 402.074 524.998 405.26L468.19 436.808C463.516 439.404 461.123 444.779 462.322 449.99C465.106 462.084 471.297 470.211 480.535 472.76C484.588 473.878 488.19 473.572 490.641 473.069C491.889 472.814 492.933 472.489 493.722 472.202C494.109 472.061 494.445 471.925 494.723 471.806L517.128 463.168C519.407 462.29 521.364 460.737 522.736 458.717L543.772 427.768C546.353 423.971 546.541 419.034 544.256 415.051L541.233 409.78Z" fill="#C93434" stroke="#FEFEFE" stroke-width="24" stroke-linejoin="round"/>
<path d="M398.315 351.168C401.836 350.918 405.288 352.23 407.753 354.756L499.433 448.686C503.8 453.161 504 460.238 499.892 464.952L490.845 457.068C499.892 464.952 499.888 464.957 499.883 464.963L499.873 464.974L499.849 465.001L499.791 465.067C499.747 465.117 499.693 465.177 499.628 465.249C499.499 465.392 499.328 465.577 499.118 465.802C498.696 466.25 498.112 466.853 497.371 467.577C495.892 469.021 493.771 470.961 491.055 473.11C485.654 477.382 477.714 482.63 467.622 486.37C446.768 494.098 418.17 494.777 386.495 471.1L398.315 351.168ZM398.315 351.168L331.558 355.91C327.766 356.179 324.326 358.23 322.285 361.437M398.315 351.168L322.285 361.437M322.285 361.437C320.244 364.644 319.843 368.628 321.204 372.178M322.285 361.437L321.204 372.178M321.204 372.178C328.674 391.652 339.948 412.475 351.619 430.139M321.204 372.178L351.619 430.139M351.619 430.139C363.083 447.489 375.784 463.095 386.494 471.099L351.619 430.139Z" fill="#C93434" stroke="#FEFEFE" stroke-width="24" stroke-linejoin="round"/>
<path d="M316.964 363.953C312.99 367.308 311.629 372.841 313.594 377.656C315.559 382.472 320.403 385.473 325.589 385.09L393.054 380.105C394.926 379.966 396.739 379.391 398.348 378.425L405.474 374.145C409.603 371.665 411.85 366.957 411.179 362.187C410.509 357.417 407.051 353.511 402.398 352.266L392.464 349.607L402.705 340.639L458.709 327.035C460.848 326.515 462.804 325.417 464.361 323.86L468.614 319.607C472.175 316.047 473.135 310.643 471.017 306.074C468.9 301.506 464.156 298.746 459.138 299.162L390.407 304.863C387.923 305.069 385.564 306.044 383.659 307.652L316.964 363.953Z" fill="#64270E" stroke="#FEFEFE" stroke-width="24" stroke-linejoin="round"/>
<path d="M392.445 355.466C395.981 355.173 399.465 356.46 401.962 358.98L499.893 457.844C502.225 460.198 503.48 463.412 503.36 466.723C503.24 470.035 501.756 473.149 499.26 475.328L491.368 466.289C499.26 475.328 499.255 475.333 499.25 475.337L499.239 475.347L499.213 475.369L499.148 475.425C499.114 475.454 499.076 475.487 499.032 475.524C499.01 475.543 498.987 475.562 498.962 475.583C498.814 475.708 498.618 475.871 498.374 476.069C497.887 476.465 497.21 477 496.353 477.643C494.642 478.925 492.199 480.645 489.105 482.536C482.945 486.301 474.049 490.843 463.092 493.905C440.774 500.142 410.458 500.009 378.789 476.341L392.445 355.466ZM392.445 355.466L323.714 361.164C319.95 361.476 316.553 363.541 314.544 366.739M392.445 355.466L314.544 366.739M314.544 366.739C312.535 369.937 312.149 373.894 313.501 377.421M314.544 366.739L313.501 377.421M313.501 377.421C320.971 396.895 332.244 417.718 343.914 435.381M313.501 377.421L343.914 435.381M343.914 435.381C355.377 452.73 368.077 468.337 378.787 476.34L343.914 435.381Z" fill="#C93434" stroke="#FEFEFE" stroke-width="24" stroke-linejoin="round"/>
<path d="M516.743 430.23C513.446 424.489 506.123 422.503 500.377 425.791L455.273 451.6C450.847 454.133 448.505 459.187 449.434 464.202C450.997 472.636 452.087 477.373 452.86 480.136C453.239 481.489 453.625 482.676 454.071 483.71C454.295 484.227 454.638 484.953 455.142 485.738C455.402 486.143 455.768 486.663 456.258 487.222C456.508 487.507 456.81 487.824 457.168 488.152C457.347 488.318 457.545 488.489 457.761 488.663C457.869 488.75 457.983 488.838 458.101 488.927C458.16 488.971 458.221 489.016 458.283 489.06C458.314 489.083 458.361 489.116 458.377 489.127C458.425 489.161 458.474 489.195 465.288 479.317L458.474 489.195C461.469 491.261 465.24 491.857 468.727 490.814L491.764 483.924C494.407 483.133 496.698 481.455 498.249 479.173L519.288 448.223C521.871 444.424 522.058 439.484 519.77 435.5L516.743 430.23Z" fill="#C93434" stroke="#FEFEFE" stroke-width="24" stroke-linejoin="round"/>
<path d="M400.443 449.312L400.444 449.313C417.166 461.809 432.203 463.176 443.851 461.198C455.95 459.143 465.08 453.322 468.755 450.629C473.553 447.113 480.203 447.643 484.384 451.874L485.571 453.076C487.898 455.431 489.149 458.643 489.027 461.952C488.905 465.26 487.422 468.372 484.928 470.549L477.035 461.51C484.928 470.549 484.923 470.554 484.918 470.558L484.907 470.567L484.883 470.588L484.823 470.64C484.798 470.662 484.769 470.687 484.737 470.713C484.713 470.734 484.686 470.757 484.658 470.78C484.529 470.89 484.36 471.03 484.153 471.199C483.738 471.535 483.169 471.985 482.454 472.522C481.024 473.593 478.997 475.02 476.437 476.585C471.344 479.699 463.986 483.457 454.912 485.995C436.36 491.183 411.187 491.033 385.035 471.49M400.443 449.312L469.184 452.435M400.443 449.312C395.138 445.349 386.947 435.907 378.284 422.968C369.826 410.336 361.693 395.54 356.171 381.87C354.201 376.992 349.282 373.966 344.04 374.407L341.903 374.586C338.142 374.903 334.749 376.97 332.743 380.167C330.738 383.364 330.353 387.319 331.705 390.843C337.79 406.704 346.949 423.613 356.414 437.938C365.672 451.95 376.075 464.795 385.035 471.49M400.443 449.312L476.857 461.686M385.035 471.49L386.826 469.092C386.577 468.91 386.328 468.725 386.079 468.539C377.378 462.039 367.343 449.765 358.342 436.321C349.135 422.57 340.163 406.317 333.918 390.859L342.964 387.205L342.909 386.544L344.993 385.745L354.112 382.246C354.163 382.377 354.214 382.509 354.264 382.64C359.604 396.441 367.799 411.633 376.438 424.708C384.976 437.63 393.159 447.284 398.664 451.694C398.664 451.694 398.665 451.694 398.665 451.695C398.916 451.896 399.161 452.086 399.401 452.265L399.401 452.265C418.727 466.707 435.962 466.373 448.449 462.882C454.894 461.079 460.214 458.374 463.918 456.109C465.757 454.985 467.158 453.993 468.058 453.318C468.507 452.982 468.828 452.727 469.012 452.577C469.104 452.502 469.161 452.454 469.184 452.435M385.035 471.49L386.826 469.093C408.932 485.311 430.429 487.821 447.87 484.859C465.056 481.94 477.674 473.847 482.94 469.988L476.857 461.686M469.184 452.435C469.195 452.426 469.197 452.424 469.19 452.43L469.184 452.435ZM476.857 461.686L477.035 461.51L476.857 461.686Z" fill="#64270E" stroke="#FEFEFE" stroke-width="24" stroke-linejoin="round"/>
<path d="M341.352 336.336C341.252 340.566 343.386 344.536 346.969 346.785L363.602 357.227C367.843 359.89 373.293 359.639 377.272 356.596L388.807 347.774C391.689 345.57 393.419 342.18 393.513 338.553C393.607 334.926 392.055 331.451 389.291 329.101L361.644 305.591C358.12 302.595 353.187 301.891 348.965 303.782C344.743 305.673 341.984 309.823 341.874 314.447L341.352 336.336Z" fill="#64270E" stroke="#FEFEFE" stroke-width="24" stroke-linejoin="round"/>
<path d="M337.985 348.649C339.011 351.883 341.359 354.532 344.446 355.939L357.023 361.673C360.045 363.051 363.504 363.115 366.575 361.848L374.92 358.407C378.788 356.812 381.546 353.318 382.198 349.186C382.851 345.053 381.304 340.879 378.117 338.17L350.468 314.671C346.39 311.205 340.509 310.859 336.053 313.822C331.596 316.786 329.64 322.342 331.259 327.444L337.985 348.649Z" fill="#C93434" stroke="#FEFEFE" stroke-width="24" stroke-linejoin="round"/>
<path d="M331.363 288.333C326.729 285.178 320.528 285.651 316.426 289.474C312.325 293.296 311.418 299.449 314.24 304.293L327.98 327.873L332.407 352.305C333.175 356.542 336.154 360.043 340.213 361.479C344.272 362.915 348.79 362.066 352.051 359.254L377.038 337.709C379.863 335.274 381.394 331.663 381.182 327.939C380.971 324.216 379.039 320.802 375.957 318.703L331.363 288.333Z" fill="#64270E" stroke="#FEFEFE" stroke-width="24" stroke-linejoin="round"/>
<path d="M352.925 276.141L352.925 276.141C345.006 273.298 335.402 273.06 328.008 279.262C320.586 285.488 319.191 295.01 320.694 303.306C322.21 311.672 326.613 319.608 331.951 325.893C337.292 332.183 344.41 337.811 352.414 340.689L352.423 340.692C360.336 343.529 369.938 343.77 377.332 337.568C384.756 331.341 386.148 321.817 384.645 313.519C383.129 305.156 378.726 297.221 373.389 290.936C368.05 284.648 360.932 279.016 352.925 276.141Z" fill="#64270E" stroke="#FEFEFE" stroke-width="24" stroke-linejoin="round"/>
<path d="M119.152 80.3825C115.917 83.0654 114.321 87.2453 114.946 91.4016C115.57 95.5578 118.323 99.0847 122.203 100.699L220.382 141.543C221.838 142.148 223.399 142.461 224.976 142.463L261.835 142.512C265.82 142.517 269.548 140.544 271.784 137.245C274.02 133.946 274.472 129.752 272.991 126.052L261.87 98.2709C260.593 95.0827 258.012 92.594 254.779 91.4349L157.23 56.4575C153.237 55.0258 148.785 55.8085 145.52 58.5163L119.152 80.3825Z" fill="#64270E" stroke="#FEFEFE" stroke-width="24" stroke-linejoin="round"/>
<path d="M221.578 69.1871C218.594 71.6612 216.988 75.4245 217.268 79.2908C217.548 83.1571 219.678 86.6503 222.987 88.6692L256.608 109.181C261.063 111.899 266.765 111.426 270.711 108.01L296.471 85.7139C299.37 83.2046 300.895 79.461 300.575 75.6401C300.256 71.8192 298.129 68.3811 294.854 66.3884L261.845 46.3093C257.471 43.6487 251.891 44.056 247.949 47.3235L221.578 69.1871Z" fill="#64270E" stroke="#FEFEFE" stroke-width="24" stroke-linejoin="round"/>
<path d="M253.742 89.3161C249.912 92.4922 248.44 97.7024 250.04 102.413L325.108 323.354C326.392 327.134 329.473 330.028 333.327 331.074C337.18 332.12 341.301 331.181 344.321 328.568L370.079 306.283C373.767 303.092 375.157 297.988 373.597 293.369L299.139 72.8478C297.875 69.1029 294.847 66.2209 291.045 65.1422C287.242 64.0635 283.152 64.9265 280.11 67.4497L253.742 89.3161Z" fill="#64270E" stroke="#FEFEFE" stroke-width="24" stroke-linejoin="round"/>
<path d="M290.338 264.681C293.306 267.447 297.47 268.525 301.408 267.548C305.345 266.571 308.522 263.671 309.854 259.839L310.578 257.754C312.098 253.377 310.963 248.515 307.661 245.264L218.748 157.736C216.694 155.715 213.982 154.499 211.107 154.313L202.513 153.755C197.451 153.426 192.728 156.317 190.718 160.975C188.708 165.632 189.844 171.051 193.556 174.51L290.338 264.681Z" fill="#64270E" stroke="#FEFEFE" stroke-width="24" stroke-linejoin="round"/>
<path d="M239.829 194.037C241.118 192.51 242.025 190.661 242.427 188.641C243.216 184.677 241.956 180.582 239.076 177.747L218.748 157.736C216.695 155.715 213.983 154.5 211.108 154.313L202.518 153.754C197.456 153.425 192.733 156.315 190.722 160.973C188.712 165.631 189.847 171.05 193.559 174.508L220.173 199.307C223.509 202.416 228.32 203.365 232.587 201.756C236.107 200.429 238.755 197.551 239.829 194.037ZM240.293 191.73C240.293 191.727 240.294 191.723 240.294 191.72C240.297 191.691 240.298 191.696 240.293 191.73Z" fill="#64270E" stroke="#FEFEFE" stroke-width="24" stroke-linejoin="round"/>
<path d="M257.216 195.6C252.961 191.41 246.272 190.987 241.523 194.608C236.774 198.228 235.409 204.789 238.321 210.003C238.944 211.118 239.559 212.279 240.16 213.481C241.035 215.242 241.816 216.961 242.507 218.635C243.165 220.227 244.158 221.659 245.419 222.834L290.342 264.681C293.311 267.446 297.475 268.525 301.412 267.547C305.349 266.57 308.526 263.67 309.857 259.838L310.582 257.753C312.102 253.376 310.967 248.515 307.665 245.264L257.216 195.6Z" fill="#64270E" stroke="#FEFEFE" stroke-width="24" stroke-linejoin="round"/>
<path d="M118.388 297.883C117.814 302.769 120.28 307.511 124.611 309.846C128.941 312.181 134.258 311.636 138.025 308.471L170.283 281.372C172.806 279.253 174.346 276.189 174.543 272.9L181.376 158.556C181.576 155.203 180.362 151.92 178.03 149.504C175.697 147.089 172.458 145.761 169.101 145.844L144.543 146.45C138.233 146.606 133.123 151.622 132.85 157.927L131.694 184.614L118.388 297.883Z" fill="#64270E" stroke="#FEFEFE" stroke-width="24" stroke-linejoin="round"/>
<path d="M118.388 297.882C117.816 302.748 120.259 307.473 124.561 309.819C128.863 312.165 134.159 311.659 137.939 308.542L170.486 281.709C173.114 279.542 174.697 276.361 174.841 272.958L175.584 255.409C175.785 250.647 173.15 246.218 168.869 244.123C164.588 242.028 159.473 242.665 155.837 245.746L124.661 272.163C122.342 274.128 120.856 276.899 120.501 279.917L118.388 297.882Z" fill="#64270E" stroke="#FEFEFE" stroke-width="24" stroke-linejoin="round"/>
<path d="M126.136 231.963C126.113 232.157 126.095 232.351 126.082 232.546L124.82 251.058C124.492 255.869 127.075 260.409 131.378 262.584C135.681 264.759 140.869 264.148 144.548 261.031L172.973 236.952C175.474 234.834 177 231.784 177.196 228.512L181.375 158.556C181.575 155.214 180.369 151.94 178.049 149.526C175.729 147.111 172.506 145.776 169.158 145.843L168.759 145.851C166 145.905 163.345 146.909 161.24 148.693L136.188 169.92C133.635 172.083 132.102 175.212 131.957 178.555L131.693 184.614L126.136 231.963Z" fill="#64270E" stroke="#FEFEFE" stroke-width="24" stroke-linejoin="round"/>
<path d="M221.747 166.13C225.739 161.235 225.253 154.084 220.636 149.774L217.836 147.16C213.031 142.675 205.511 142.89 200.971 147.644L143.697 207.606C140.682 210.761 139.619 215.305 140.92 219.471L144.604 231.268C145.92 235.484 149.446 238.636 153.783 239.474C158.12 240.311 162.566 238.698 165.358 235.275L221.747 166.13Z" fill="#64270E" stroke="#FEFEFE" stroke-width="24" stroke-linejoin="round"/>
<path d="M179.813 195.245C182.129 197.935 185.518 199.462 189.068 199.414C192.617 199.367 195.964 197.75 198.207 194.999L221.745 166.13C225.736 161.235 225.25 154.084 220.633 149.774L217.834 147.161C213.028 142.675 205.507 142.891 200.967 147.645L174.698 175.152C171.783 178.204 170.686 182.564 171.809 186.633C172.854 190.416 175.675 193.431 179.336 194.739C179.457 194.854 179.618 195.019 179.813 195.245Z" fill="#64270E" stroke="#FEFEFE" stroke-width="24" stroke-linejoin="round"/>
<path d="M185.282 196.215C186.381 191.023 183.938 185.725 179.275 183.19C174.613 180.654 168.838 181.482 165.077 185.227L142.914 207.287C139.998 210.189 138.772 214.382 139.665 218.398L143.137 234.002C144.158 238.588 147.761 242.157 152.357 243.134C156.953 244.11 161.696 242.315 164.493 238.539L182.476 214.266C184.184 211.96 185.01 209.119 184.802 206.257C184.505 202.144 184.756 198.705 185.282 196.215Z" fill="#64270E" stroke="#FEFEFE" stroke-width="24" stroke-linejoin="round"/>
<path d="M124.537 309.373C127.905 310.66 131.673 310.365 134.799 308.569C137.925 306.773 140.078 303.667 140.663 300.11L161.64 172.46C162.126 169.503 161.488 166.472 159.852 163.962L123.706 108.496C121.857 105.66 118.897 103.736 115.555 103.2C112.212 102.663 108.799 103.563 106.155 105.678L27.9276 168.262C24.5784 170.942 22.9139 175.205 23.5618 179.445L37.3284 269.539C37.9805 273.806 40.8742 277.395 44.9063 278.936L124.537 309.373Z" fill="#C93434" stroke="#FEFEFE" stroke-width="24" stroke-linejoin="round"/>
<path d="M128.46 311.022C134.651 311.643 140.29 307.429 141.448 301.316L145.036 282.371C145.067 282.209 145.094 282.046 145.118 281.883L156.694 203.129C157.487 197.728 154.536 192.473 149.512 190.339L58.9154 151.858C54.9099 150.156 50.2972 150.757 46.8609 153.427L21.7679 172.926C18.2392 175.668 16.5265 180.144 17.3233 184.541L36.9968 293.112C37.9513 298.38 42.28 302.378 47.6069 302.913L128.46 311.022Z" fill="#C93434" stroke="#FEFEFE" stroke-width="24" stroke-linejoin="round"/>
<path d="M123.911 188.922C125.737 190.152 127.867 190.855 130.066 190.955L264.38 197.083C268.226 197.258 271.922 195.578 274.318 192.566C276.715 189.554 277.521 185.575 276.485 181.867L263.088 133.903C262.065 130.243 259.37 127.283 255.821 125.925L131.21 78.2077C125.743 76.1144 119.564 78.2707 116.587 83.3106L79.7897 145.599C76.5587 151.068 78.1498 158.108 83.4191 161.656L123.911 188.922Z" fill="#C93434" stroke="#FEFEFE" stroke-width="24" stroke-linejoin="round"/>
<path d="M246.003 196.244C250.392 196.444 254.54 194.229 256.815 190.47C259.09 186.712 259.129 182.01 256.916 178.214L220.132 115.102C218.767 112.759 216.648 110.948 214.122 109.963L212.924 109.496C208.499 107.772 203.474 108.819 200.106 112.167C196.739 115.516 195.662 120.535 197.361 124.969L221.468 187.917C223.175 192.374 227.361 195.396 232.128 195.613L246.003 196.244Z" fill="#64270E" stroke="#FEFEFE" stroke-width="24" stroke-linejoin="round"/>
<path d="M160.705 181.936C161.115 179.375 160.684 176.75 159.477 174.454L129.587 117.611C129.569 117.577 129.55 117.543 129.532 117.508L123.745 106.759C121.989 103.496 118.824 101.228 115.171 100.613C111.517 99.9981 107.784 101.105 105.057 103.613L80.0915 126.566C76.357 130 75.1851 135.411 77.1643 140.082L126.366 256.197C128.454 261.124 133.552 264.073 138.864 263.427C144.176 262.781 148.418 258.696 149.264 253.412L160.705 181.936Z" fill="#64270E" stroke="#FEFEFE" stroke-width="24" stroke-linejoin="round"/>
<path d="M125.71 310.606C129.105 311.937 132.922 311.651 136.081 309.831C139.241 308.01 141.401 304.851 141.952 301.246L144.822 282.464C145.248 279.679 144.68 276.832 143.218 274.424L69.237 152.561C67.4456 149.61 64.4703 147.573 61.0711 146.972C57.672 146.37 54.1783 147.261 51.4828 149.418L27.9281 168.262C24.5788 170.941 22.9144 175.205 23.5623 179.445L25.2182 190.282C25.4121 191.551 25.8084 192.78 26.3919 193.924L73.92 287.058C75.2534 289.671 77.4978 291.705 80.2289 292.776L125.71 310.606Z" fill="#64270E" stroke="#FEFEFE" stroke-width="24" stroke-linejoin="round"/>
<path d="M156.966 203.035C157.711 197.659 154.756 192.453 149.758 190.337L114.532 175.423C110.031 173.517 104.823 174.532 101.367 177.989C97.9109 181.446 96.8973 186.654 98.8045 191.155L126.365 256.197C128.442 261.096 133.497 264.044 138.784 263.436C144.07 262.829 148.326 258.813 149.237 253.57L152.775 233.217C152.798 233.082 152.819 232.946 152.838 232.81L156.966 203.035Z" fill="#64270E" stroke="#FEFEFE" stroke-width="24" stroke-linejoin="round"/>
<path d="M25.2183 190.282C25.3927 191.423 25.731 192.534 26.2226 193.578L76.2217 299.836C78.0039 303.623 81.6308 306.208 85.7924 306.657L129.119 311.332C135.485 312.019 141.268 307.587 142.261 301.262L145.2 282.543C145.641 279.733 145.07 276.858 143.588 274.43L74.2323 160.79C72.9258 158.65 70.9814 156.972 68.6724 155.993L58.9076 151.854C54.9035 150.157 50.2945 150.759 46.8607 153.428L33.2839 163.979C33.2396 164.014 33.1955 164.048 33.1517 164.083L27.9287 168.262C24.5791 170.941 22.9144 175.205 23.5624 179.445L25.2183 190.282Z" fill="#64270E" stroke="#FEFEFE" stroke-width="24" stroke-linejoin="round"/>
<path d="M306.531 338.735C308.873 343.385 313.947 345.994 319.092 345.194L343.85 341.345C347.353 340.8 350.436 338.734 352.272 335.701C354.108 332.668 354.509 328.979 353.367 325.623L274.693 94.3599C273.771 91.647 271.907 89.354 269.441 87.8955L235.648 67.9122C232.806 66.2316 229.397 65.7962 226.224 66.7086C223.05 67.621 220.393 69.8005 218.878 72.7339L198.231 112.703C196.467 116.119 196.446 120.174 198.176 123.608L306.531 338.735Z" fill="#C93434" stroke="#FEFEFE" stroke-width="24" stroke-linejoin="round"/>
<path d="M328.448 297.56L328.447 297.56C320.528 294.714 310.925 294.476 303.531 300.678C296.11 306.904 294.713 316.424 296.216 324.722C297.732 333.087 302.135 341.022 307.472 347.308C312.812 353.597 319.928 359.227 327.931 362.105L327.936 362.107C335.857 364.952 345.462 365.188 352.855 358.983C360.275 352.756 361.671 343.234 360.167 334.936C358.651 326.57 354.248 318.637 348.91 312.352C343.569 306.064 336.452 300.437 328.448 297.56Z" fill="#C93434" stroke="#FEFEFE" stroke-width="24" stroke-linejoin="round"/>
<path d="M357.156 369.905L357.147 369.901C350.479 367.512 341.921 367.157 335.195 372.785C328.432 378.445 327.319 386.967 328.587 393.967C329.867 401.029 333.553 407.596 337.917 412.726C342.286 417.86 348.176 422.543 354.925 424.966L354.931 424.968C361.594 427.356 370.15 427.715 376.878 422.092C383.647 416.434 384.76 407.909 383.492 400.91C382.212 393.847 378.526 387.279 374.162 382.148C369.793 377.013 363.904 372.329 357.156 369.905Z" fill="#64270E" stroke="#FEFEFE" stroke-width="24" stroke-linejoin="round"/>
<path d="M356.114 417.364L356.116 417.365C360.991 419.114 368.065 419.639 373.834 414.799C379.633 409.935 380.317 402.842 379.388 397.713C378.446 392.516 375.798 387.895 372.83 384.404C369.861 380.912 365.734 377.566 360.778 375.788C360.777 375.788 360.776 375.787 360.775 375.787C360.774 375.787 360.772 375.786 360.771 375.786C355.894 374.037 348.823 373.516 343.057 378.355C337.26 383.219 336.574 390.311 337.504 395.443C338.446 400.639 341.095 405.258 344.061 408.747C347.031 412.239 351.158 415.586 356.114 417.364Z" fill="#C93434" stroke="#FEFEFE" stroke-width="24" stroke-linejoin="round"/>
<path d="M150.068 158.241L150.067 158.235C148.939 152.047 145.731 146.391 142.016 142.031C138.296 137.666 133.225 133.608 127.311 131.488L127.309 131.487C121.488 129.402 113.628 128.957 107.343 134.202C101.011 139.487 100.096 147.351 101.21 153.482C102.335 159.676 105.545 165.335 109.262 169.696C112.981 174.06 118.052 178.116 123.964 180.234C123.967 180.235 123.969 180.236 123.971 180.237C129.799 182.325 137.658 182.763 143.939 177.516C150.264 172.231 151.182 164.372 150.068 158.241Z" fill="#64270E" stroke="#FEFEFE" stroke-width="24" stroke-linejoin="round"/>
<path d="M124.921 174.107L124.925 174.108C129.303 175.676 135.967 176.251 141.477 171.638C147.026 166.992 147.596 160.28 146.754 155.652L146.752 155.643C145.896 150.962 143.526 146.878 140.938 143.84C138.349 140.802 134.7 137.823 130.23 136.225C125.851 134.655 119.191 134.079 113.682 138.69C108.131 143.337 107.562 150.05 108.404 154.677C109.258 159.363 111.628 163.449 114.216 166.487C116.808 169.529 120.456 172.507 124.921 174.107ZM123.095 159.019C123.101 158.847 123.114 158.656 123.137 158.449C123.308 158.658 123.484 158.863 123.665 159.063C123.458 159.055 123.267 159.039 123.095 159.019ZM133.236 151.607C133.236 151.607 133.234 151.606 133.231 151.604C133.234 151.606 133.236 151.607 133.236 151.607ZM121.932 158.731C121.929 158.729 121.927 158.728 121.927 158.728C121.927 158.728 121.929 158.729 121.932 158.731ZM123.207 160.219C123.209 160.224 123.21 160.226 123.21 160.226C123.21 160.226 123.209 160.224 123.207 160.219ZM132.063 151.313C132.057 151.485 132.044 151.676 132.02 151.883C131.849 151.674 131.673 151.469 131.492 151.268C131.7 151.276 131.891 151.292 132.063 151.313ZM131.949 150.109C131.949 150.108 131.95 150.111 131.952 150.116C131.95 150.111 131.949 150.109 131.949 150.109Z" fill="#C93434" stroke="#FEFEFE" stroke-width="24" stroke-linejoin="round"/>
<path d="M248.911 186.844L248.913 186.844C257.1 189.783 266.924 190.006 274.469 183.707C282.057 177.371 283.527 167.631 281.969 159.05L281.968 159.043C280.395 150.404 275.827 142.182 270.27 135.656C264.711 129.127 257.321 123.305 249.041 120.333C249.04 120.333 249.039 120.332 249.038 120.332C249.037 120.331 249.035 120.331 249.034 120.33C240.849 117.39 231.025 117.163 223.479 123.463C215.888 129.8 214.422 139.544 215.982 148.125C217.554 156.768 222.122 164.99 227.678 171.517C233.239 178.049 240.631 183.871 248.911 186.844Z" fill="#64270E" stroke="#FEFEFE" stroke-width="24" stroke-linejoin="round"/>
<path d="M250.514 176.565L250.504 176.561C244.661 174.46 239.659 170.448 235.995 166.139C232.335 161.836 229.169 156.251 228.055 150.129C228.055 150.127 228.055 150.125 228.054 150.123M250.514 176.565L239.861 147.978L228.054 150.123M250.514 176.565C256.273 178.63 264.085 179.078 270.333 173.847C276.617 168.586 277.508 160.778 276.408 154.723C275.295 148.599 272.129 143.011 268.467 138.706C264.801 134.398 259.798 130.386 253.952 128.285L253.945 128.283C248.189 126.219 240.376 125.767 234.127 130.998C227.841 136.261 226.953 144.07 228.054 150.123M250.514 176.565L228.054 150.123" fill="#C93434" stroke="#FEFEFE" stroke-width="24" stroke-linejoin="round"/>
<path d="M325.858 356.494L325.856 356.493C319.45 354.192 313.897 349.763 309.797 344.943C305.702 340.129 302.214 333.937 300.999 327.236L325.858 356.494ZM325.858 356.494C332.177 358.762 340.447 359.157 346.993 353.688C353.579 348.185 354.614 339.935 353.41 333.294L353.409 333.289M325.858 356.494L353.409 333.289M353.409 333.289C352.192 326.588 348.704 320.396 344.608 315.582C340.507 310.763 334.956 306.336 328.552 304.034L328.544 304.031M353.409 333.289L328.544 304.031M328.544 304.031C322.233 301.766 313.96 301.364 307.412 306.834M328.544 304.031L307.412 306.834M307.412 306.834C300.821 312.339 299.794 320.593 300.998 327.231L307.412 306.834Z" fill="#64270E" stroke="#FEFEFE" stroke-width="24" stroke-linejoin="round"/>
<path d="M326.958 349.505L326.937 349.498C322.183 347.787 318.256 344.585 315.446 341.278C312.639 337.975 310.106 333.576 309.2 328.595C308.305 323.672 308.941 316.735 314.639 311.96C320.304 307.213 327.211 307.763 331.882 309.44C336.637 311.147 340.567 314.347 343.379 317.655C346.186 320.957 348.72 325.357 349.625 330.342L326.958 349.505ZM326.958 349.505C331.622 351.174 338.523 351.721 344.184 346.979M326.958 349.505L344.184 346.979M344.184 346.979C349.882 342.207 350.52 335.273 349.627 330.35L344.184 346.979Z" fill="#C93434" stroke="#FEFEFE" stroke-width="24" stroke-linejoin="round"/>
<path d="M573.031 379.906L527.927 405.711C532.341 424.877 532.341 424.877 532.341 424.877L555.023 416.129L576.063 385.183L573.031 379.906Z" fill="#64270E"/>
<path d="M460.13 311.121L558.062 409.989C558.062 409.989 509.183 452.661 452.67 410.43C434.714 397.014 405.593 353.817 391.402 316.818L460.13 311.121Z" fill="#64270E"/>
<path d="M450.986 319.614L534.606 413.892C534.606 413.892 461.19 495.903 404.676 453.669C386.72 440.249 338.621 366.736 382.252 325.315L450.986 319.614Z" fill="#64270E"/>
<path d="M454.15 313.486L545.59 408.487C545.59 408.487 503.199 455.03 446.69 412.798C428.73 399.38 401.392 358.833 387.198 321.835L454.15 313.486Z" fill="#C93434"/>
<path d="M444.571 353.196L396.155 342.275C409.556 374.5 430.46 401.936 445.142 412.907C465.407 428.052 485.406 431.671 500.737 430.225L444.571 353.196Z" fill="#64270E"/>
<path d="M553.448 395.629L483.892 434.615C488.302 453.775 512.754 440.594 512.754 440.594L535.437 431.853L556.473 400.904L553.448 395.629Z" fill="#64270E"/>
<path d="M530.824 415.751L474.016 447.299C478.426 466.458 490.129 460.716 490.129 460.716L512.812 451.971L533.847 421.022L530.824 415.751Z" fill="#C93434"/>
<path d="M399.165 363.138L490.845 457.068C490.845 457.068 450.186 503.727 393.678 461.488C375.722 448.068 346.598 404.872 332.408 367.88L399.165 363.138Z" fill="#C93434"/>
<path d="M324.705 373.122L391.399 316.822L460.13 311.121L455.876 315.374L397.013 329.672L367.647 355.389L399.296 363.858L392.17 368.137L324.705 373.122Z" fill="#64270E"/>
<path d="M393.436 367.425L491.368 466.289C491.368 466.289 442.485 508.965 385.971 466.728C368.016 453.311 338.895 410.114 324.705 373.123L393.436 367.425Z" fill="#C93434"/>
<path d="M506.337 436.206L461.233 462.015C464.315 478.646 465.288 479.317 465.288 479.317L488.325 472.427L509.364 441.477L506.337 436.206Z" fill="#C93434"/>
<path d="M393.261 458.926C379.255 448.462 356.811 415.493 345.045 386.365L342.909 386.544C354.329 416.311 377.764 451.076 392.218 461.878C437.695 495.862 477.035 461.51 477.035 461.51L475.848 460.308C466.907 466.86 432.352 488.138 393.261 458.926Z" fill="#64270E"/>
<path d="M353.349 336.622L369.982 347.064L381.517 338.242L353.87 314.733L353.349 336.622Z" fill="#64270E"/>
<path d="M349.424 345.021L362.001 350.754L370.345 347.313L342.697 323.815L349.424 345.021Z" fill="#C93434"/>
<path d="M324.608 298.252L339.411 323.655L344.215 350.166L369.202 328.621L324.608 298.252Z" fill="#64270E"/>
<path d="M372.837 315.659C374.938 327.256 367.611 333.39 356.473 329.396C345.334 325.392 334.602 312.757 332.502 301.166C330.402 289.579 337.727 283.435 348.87 287.435C360.005 291.434 370.738 304.076 372.837 315.659Z" fill="#64270E"/>
<path d="M126.812 89.6195L224.992 130.463L261.851 130.512L250.729 102.731L153.18 67.7533L126.812 89.6195Z" fill="#64270E"/>
<path d="M229.237 78.4252L262.857 98.9371L288.617 76.6406L255.608 56.5615L229.237 78.4252Z" fill="#64270E"/>
<path d="M261.402 98.5531L336.47 319.493L362.228 297.208L287.77 76.6867L261.402 98.5531Z" fill="#64270E"/>
<path d="M298.518 255.901L201.736 165.73L210.329 166.288L299.242 253.816L298.518 255.901Z" fill="#64270E"/>
<path d="M230.431 186.39C230.506 186.348 230.578 186.331 230.658 186.299L210.33 166.288L201.74 165.729L228.353 190.528C228.562 188.439 229.242 186.981 230.431 186.39Z" fill="#64270E"/>
<path d="M248.798 204.151C249.513 205.432 250.215 206.757 250.899 208.126C251.896 210.132 252.795 212.109 253.598 214.053L298.522 255.901L299.246 253.815L248.798 204.151Z" fill="#64270E"/>
<path d="M130.306 299.283L143.664 185.575L144.839 158.447L169.397 157.84L162.564 272.184L130.306 299.283Z" fill="#64270E"/>
<path d="M130.306 299.283L162.852 272.45L163.594 254.902L132.419 281.318L130.306 299.283Z" fill="#64270E"/>
<path d="M143.663 185.575L138.054 233.362L136.792 251.875L165.217 227.796L169.397 157.84L168.997 157.848L143.945 179.075L143.663 185.575Z" fill="#64270E"/>
<path d="M212.448 158.546L156.058 227.691L152.374 215.894L209.648 155.932L212.448 158.546Z" fill="#64270E"/>
<path d="M188.907 187.415L212.445 158.547L209.645 155.933L183.376 183.44C185.238 183.954 187.121 185.341 188.907 187.415Z" fill="#64270E"/>
<path d="M173.542 193.732L151.379 215.792L154.851 231.396L172.834 207.123C172.472 202.124 172.738 197.531 173.542 193.732Z" fill="#64270E"/>
<path d="M128.822 298.164L149.799 170.514L113.652 115.048L35.4241 177.632L49.1908 267.727L128.822 298.164Z" fill="#C93434"/>
<path d="M129.657 299.082L133.246 280.138L144.821 201.384L54.224 162.903L29.131 182.402L48.8045 290.972L129.657 299.082Z" fill="#C93434"/>
<path d="M130.613 178.968L264.927 185.095L251.53 137.131L126.918 89.4141L90.1215 151.702L130.613 178.968Z" fill="#C93434"/>
<path d="M246.549 184.257L209.764 121.144L208.567 120.677L232.674 183.625L246.549 184.257Z" fill="#64270E"/>
<path d="M148.856 180.039L118.966 123.196L113.179 112.447L88.2133 135.4L137.415 251.515L148.856 180.039Z" fill="#64270E"/>
<path d="M130.09 299.433L132.96 280.651L58.9793 158.788L35.4246 177.632L37.0805 188.469L84.6087 281.604L130.09 299.433Z" fill="#64270E"/>
<path d="M145.079 201.387L109.854 186.473L137.414 251.515L140.952 231.162L145.079 201.387Z" fill="#64270E"/>
<path d="M37.0806 188.469L87.0797 294.727L130.406 299.401L133.345 280.682L63.9892 167.042L54.2244 162.903L40.6477 173.454L35.4247 177.632L37.0806 188.469Z" fill="#64270E"/>
<path d="M317.248 333.337L208.893 118.21L229.54 78.2413L263.333 98.2246L342.006 329.487L317.248 333.337Z" fill="#C93434"/>
<path d="M348.359 337.075C350.46 348.666 343.131 354.814 331.992 350.813C320.856 346.808 310.124 334.17 308.024 322.583C305.925 310.996 313.253 304.851 324.389 308.853C335.529 312.857 346.26 325.489 348.359 337.075Z" fill="#C93434"/>
<path d="M340.395 391.827C342.02 400.795 350.34 410.571 358.979 413.672C367.621 416.769 373.309 412.016 371.684 403.049C370.059 394.078 361.738 384.302 353.098 381.198C344.456 378.101 338.77 382.86 340.395 391.827Z" fill="#64270E"/>
<path d="M349.312 393.303C350.262 398.546 355.119 404.258 360.168 406.07C365.212 407.879 368.53 405.095 367.58 399.853C366.629 394.603 361.772 388.891 356.723 387.082C351.682 385.273 348.361 388.057 349.312 393.303Z" fill="#C93434"/>
<path d="M113.016 151.337C114.329 158.564 121.047 166.444 128.016 168.939C134.989 171.44 139.573 167.603 138.261 160.386C136.945 153.163 130.232 145.283 123.262 142.784C116.289 140.287 111.704 144.113 113.016 151.337Z" fill="#64270E"/>
<path d="M120.21 152.527C120.979 156.75 124.898 161.351 128.97 162.811C133.038 164.267 135.717 162.028 134.948 157.802C134.175 153.579 130.256 148.975 126.185 147.522C122.12 146.062 119.441 148.301 120.21 152.527Z" fill="#C93434"/>
<path d="M227.789 145.978C229.995 158.111 241.261 171.347 252.966 175.55C264.668 179.749 272.364 173.323 270.162 161.193C267.954 149.064 256.687 135.825 244.982 131.625C233.28 127.419 225.583 133.845 227.789 145.978Z" fill="#64270E"/>
<path d="M239.861 147.978C241.151 155.077 247.735 162.813 254.564 165.269C261.4 167.72 265.889 163.957 264.601 156.869C263.311 149.77 256.728 142.034 249.895 139.579C243.059 137.128 238.569 140.886 239.861 147.978Z" fill="#C93434"/>
<path d="M312.806 325.091C314.301 333.341 321.958 342.343 329.913 345.199C337.863 348.053 343.097 343.68 341.603 335.433C340.104 327.184 332.447 318.186 324.492 315.326C316.539 312.473 311.307 316.838 312.806 325.091Z" fill="#64270E"/>
<path d="M321.006 326.447C321.884 331.269 326.356 336.536 331 338.206C335.642 339.867 338.697 337.313 337.819 332.49C336.945 327.663 332.47 322.401 327.826 320.734C323.183 319.066 320.13 321.628 321.006 326.447Z" fill="#C93434"/>
</g>
<defs>
<filter id="filter0_d_3_6503" x="0.130371" y="31.5613" width="606.933" height="488.818" filterUnits="userSpaceOnUse" color-interpolation-filters="sRGB">
<feFlood flood-opacity="0" result="BackgroundImageFix"/>
<feColorMatrix in="SourceAlpha" type="matrix" values="0 0 0 0 0 0 0 0 0 0 0 0 0 0 0 0 0 0 127 0" result="hardAlpha"/>
<feOffset dx="1" dy="5"/>
<feGaussianBlur stdDeviation="3"/>
<feComposite in2="hardAlpha" operator="out"/>
<feColorMatrix type="matrix" values="0 0 0 0 0 0 0 0 0 0 0 0 0 0 0 0 0 0 0.25 0"/>
<feBlend mode="normal" in2="BackgroundImageFix" result="effect1_dropShadow_3_6503"/>
<feBlend mode="normal" in="SourceGraphic" in2="effect1_dropShadow_3_6503" result="shape"/>
</filter>
</defs>
</svg>
