<svg width="1071" height="464" viewBox="0 0 1071 464" fill="none" xmlns="http://www.w3.org/2000/svg">
<g filter="url(#filter0_d_3_6749)">
<g filter="url(#filter1_d_3_6749)">
<path d="M262.5 277.5V92.5L371 119L512.5 83.5H550.5H639.5L670 119L769.5 211.5L855.5 249L866.432 277.5H1006L1007.79 280.252L1040 277.5L1011.31 285.658L1026.5 309C1012.33 333.167 981.7 381.5 972.5 381.5H769.5L345 365L52.5 322V277.5L189 290.5L262.5 277.5Z" fill="#FEFEFE"/>
<mask id="path-2-outside-1_3_6749" maskUnits="userSpaceOnUse" x="236" y="50" width="600" height="198" fill="black">
<rect fill="white" x="236" y="50" width="600" height="198"/>
<path d="M262.8 224C260.933 224 260 223.067 260 221.2V77.504C260 75.6373 260.933 74.704 262.8 74.704H330.224C331.941 74.704 333.435 75.3013 334.704 76.496L357.104 98.896C358.299 100.165 358.896 101.659 358.896 103.376V126.896C358.896 127.643 358.747 128.24 358.448 128.688C358.149 129.136 357.701 129.659 357.104 130.256L339.52 145.936L337.84 150.08L339.52 153.104L357.104 168.784C357.701 169.381 358.149 169.904 358.448 170.352C358.747 170.725 358.896 171.323 358.896 172.144V195.216C358.896 197.008 358.299 198.501 357.104 199.696L334.704 222.096C333.435 223.365 331.941 224 330.224 224H262.8ZM307.376 198.8C313.573 198.8 317.792 197.568 320.032 195.104C322.347 192.64 323.504 187.973 323.504 181.104C323.504 174.16 322.347 169.456 320.032 166.992C317.792 164.528 313.573 163.296 307.376 163.296C301.253 163.296 297.035 164.528 294.72 166.992C292.48 169.456 291.36 174.16 291.36 181.104C291.36 187.973 292.48 192.64 294.72 195.104C297.035 197.568 301.253 198.8 307.376 198.8ZM307.376 135.296C313.573 135.296 317.792 134.064 320.032 131.6C322.347 129.136 323.504 124.469 323.504 117.6C323.504 110.731 322.347 106.064 320.032 103.6C317.792 101.136 313.573 99.904 307.376 99.904C301.253 99.904 297.035 101.136 294.72 103.6C292.48 106.064 291.36 110.731 291.36 117.6C291.36 124.469 292.48 129.136 294.72 131.6C297.035 134.064 301.253 135.296 307.376 135.296ZM406.139 224C404.422 224 402.928 223.365 401.659 222.096L379.259 199.696C377.99 198.501 377.355 197.008 377.355 195.216V103.376C377.355 101.659 377.99 100.165 379.259 98.896L401.659 76.496C402.928 75.3013 404.422 74.704 406.139 74.704H450.155C451.947 74.704 453.44 75.3013 454.635 76.496L477.035 98.896C478.304 100.165 478.939 101.659 478.939 103.376V195.216C478.939 197.008 478.304 198.501 477.035 199.696L454.635 222.096C453.44 223.365 451.947 224 450.155 224H406.139ZM419.355 194.096H436.939C440.075 194.096 441.643 192.005 441.643 187.824V110.88C441.643 106.624 440.075 104.496 436.939 104.496H419.355C416.294 104.496 414.763 106.624 414.763 110.88V187.824C414.763 192.005 416.294 194.096 419.355 194.096ZM500.161 224C498.295 224 497.361 223.067 497.361 221.2V77.504C497.361 75.6373 498.295 74.704 500.161 74.704H567.585C569.303 74.704 570.796 75.3013 572.065 76.496L594.465 98.896C595.66 100.165 596.257 101.659 596.257 103.376V126.896C596.257 127.643 596.108 128.24 595.809 128.688C595.511 129.136 595.063 129.659 594.465 130.256L576.881 145.936L575.201 150.08L576.881 153.104L594.465 168.784C595.063 169.381 595.511 169.904 595.809 170.352C596.108 170.725 596.257 171.323 596.257 172.144V195.216C596.257 197.008 595.66 198.501 594.465 199.696L572.065 222.096C570.796 223.365 569.303 224 567.585 224H500.161ZM544.737 198.8C550.935 198.8 555.153 197.568 557.393 195.104C559.708 192.64 560.865 187.973 560.865 181.104C560.865 174.16 559.708 169.456 557.393 166.992C555.153 164.528 550.935 163.296 544.737 163.296C538.615 163.296 534.396 164.528 532.081 166.992C529.841 169.456 528.721 174.16 528.721 181.104C528.721 187.973 529.841 192.64 532.081 195.104C534.396 197.568 538.615 198.8 544.737 198.8ZM544.737 135.296C550.935 135.296 555.153 134.064 557.393 131.6C559.708 129.136 560.865 124.469 560.865 117.6C560.865 110.731 559.708 106.064 557.393 103.6C555.153 101.136 550.935 99.904 544.737 99.904C538.615 99.904 534.396 101.136 532.081 103.6C529.841 106.064 528.721 110.731 528.721 117.6C528.721 124.469 529.841 129.136 532.081 131.6C534.396 134.064 538.615 135.296 544.737 135.296ZM644.213 224C642.346 224 641.413 223.067 641.413 221.2V77.504C641.413 75.6373 642.346 74.704 644.213 74.704H722.277C724.143 74.704 725.077 75.6373 725.077 77.504V101.696C725.077 103.563 724.143 104.496 722.277 104.496H678.709V136.304H718.469C720.335 136.304 721.269 137.237 721.269 139.104V159.6C721.269 161.467 720.335 162.4 718.469 162.4H678.709V194.096H722.277C724.143 194.096 725.077 195.029 725.077 196.896V221.2C725.077 223.067 724.143 224 722.277 224H644.213ZM745.721 224C743.855 224 742.921 223.067 742.921 221.2V77.504C742.921 75.6373 743.855 74.704 745.721 74.704H777.417C779.284 74.704 780.217 75.6373 780.217 77.504V194.096H808.441C810.308 194.096 811.241 195.029 811.241 196.896V221.2C811.241 223.067 810.308 224 808.441 224H745.721Z"/>
</mask>
<path d="M262.8 224C260.933 224 260 223.067 260 221.2V77.504C260 75.6373 260.933 74.704 262.8 74.704H330.224C331.941 74.704 333.435 75.3013 334.704 76.496L357.104 98.896C358.299 100.165 358.896 101.659 358.896 103.376V126.896C358.896 127.643 358.747 128.24 358.448 128.688C358.149 129.136 357.701 129.659 357.104 130.256L339.52 145.936L337.84 150.08L339.52 153.104L357.104 168.784C357.701 169.381 358.149 169.904 358.448 170.352C358.747 170.725 358.896 171.323 358.896 172.144V195.216C358.896 197.008 358.299 198.501 357.104 199.696L334.704 222.096C333.435 223.365 331.941 224 330.224 224H262.8ZM307.376 198.8C313.573 198.8 317.792 197.568 320.032 195.104C322.347 192.64 323.504 187.973 323.504 181.104C323.504 174.16 322.347 169.456 320.032 166.992C317.792 164.528 313.573 163.296 307.376 163.296C301.253 163.296 297.035 164.528 294.72 166.992C292.48 169.456 291.36 174.16 291.36 181.104C291.36 187.973 292.48 192.64 294.72 195.104C297.035 197.568 301.253 198.8 307.376 198.8ZM307.376 135.296C313.573 135.296 317.792 134.064 320.032 131.6C322.347 129.136 323.504 124.469 323.504 117.6C323.504 110.731 322.347 106.064 320.032 103.6C317.792 101.136 313.573 99.904 307.376 99.904C301.253 99.904 297.035 101.136 294.72 103.6C292.48 106.064 291.36 110.731 291.36 117.6C291.36 124.469 292.48 129.136 294.72 131.6C297.035 134.064 301.253 135.296 307.376 135.296ZM406.139 224C404.422 224 402.928 223.365 401.659 222.096L379.259 199.696C377.99 198.501 377.355 197.008 377.355 195.216V103.376C377.355 101.659 377.99 100.165 379.259 98.896L401.659 76.496C402.928 75.3013 404.422 74.704 406.139 74.704H450.155C451.947 74.704 453.44 75.3013 454.635 76.496L477.035 98.896C478.304 100.165 478.939 101.659 478.939 103.376V195.216C478.939 197.008 478.304 198.501 477.035 199.696L454.635 222.096C453.44 223.365 451.947 224 450.155 224H406.139ZM419.355 194.096H436.939C440.075 194.096 441.643 192.005 441.643 187.824V110.88C441.643 106.624 440.075 104.496 436.939 104.496H419.355C416.294 104.496 414.763 106.624 414.763 110.88V187.824C414.763 192.005 416.294 194.096 419.355 194.096ZM500.161 224C498.295 224 497.361 223.067 497.361 221.2V77.504C497.361 75.6373 498.295 74.704 500.161 74.704H567.585C569.303 74.704 570.796 75.3013 572.065 76.496L594.465 98.896C595.66 100.165 596.257 101.659 596.257 103.376V126.896C596.257 127.643 596.108 128.24 595.809 128.688C595.511 129.136 595.063 129.659 594.465 130.256L576.881 145.936L575.201 150.08L576.881 153.104L594.465 168.784C595.063 169.381 595.511 169.904 595.809 170.352C596.108 170.725 596.257 171.323 596.257 172.144V195.216C596.257 197.008 595.66 198.501 594.465 199.696L572.065 222.096C570.796 223.365 569.303 224 567.585 224H500.161ZM544.737 198.8C550.935 198.8 555.153 197.568 557.393 195.104C559.708 192.64 560.865 187.973 560.865 181.104C560.865 174.16 559.708 169.456 557.393 166.992C555.153 164.528 550.935 163.296 544.737 163.296C538.615 163.296 534.396 164.528 532.081 166.992C529.841 169.456 528.721 174.16 528.721 181.104C528.721 187.973 529.841 192.64 532.081 195.104C534.396 197.568 538.615 198.8 544.737 198.8ZM544.737 135.296C550.935 135.296 555.153 134.064 557.393 131.6C559.708 129.136 560.865 124.469 560.865 117.6C560.865 110.731 559.708 106.064 557.393 103.6C555.153 101.136 550.935 99.904 544.737 99.904C538.615 99.904 534.396 101.136 532.081 103.6C529.841 106.064 528.721 110.731 528.721 117.6C528.721 124.469 529.841 129.136 532.081 131.6C534.396 134.064 538.615 135.296 544.737 135.296ZM644.213 224C642.346 224 641.413 223.067 641.413 221.2V77.504C641.413 75.6373 642.346 74.704 644.213 74.704H722.277C724.143 74.704 725.077 75.6373 725.077 77.504V101.696C725.077 103.563 724.143 104.496 722.277 104.496H678.709V136.304H718.469C720.335 136.304 721.269 137.237 721.269 139.104V159.6C721.269 161.467 720.335 162.4 718.469 162.4H678.709V194.096H722.277C724.143 194.096 725.077 195.029 725.077 196.896V221.2C725.077 223.067 724.143 224 722.277 224H644.213ZM745.721 224C743.855 224 742.921 223.067 742.921 221.2V77.504C742.921 75.6373 743.855 74.704 745.721 74.704H777.417C779.284 74.704 780.217 75.6373 780.217 77.504V194.096H808.441C810.308 194.096 811.241 195.029 811.241 196.896V221.2C811.241 223.067 810.308 224 808.441 224H745.721Z" fill="#C93434"/>
<path d="M334.704 76.496L351.675 59.5254C351.503 59.3541 351.329 59.1853 351.153 59.0192L334.704 76.496ZM357.104 98.896L374.581 82.4473C374.415 82.2708 374.246 82.0968 374.075 81.9254L357.104 98.896ZM358.448 128.688L378.417 142.001L378.417 142.001L358.448 128.688ZM357.104 130.256L373.077 148.169C373.418 147.864 373.751 147.55 374.075 147.226L357.104 130.256ZM339.52 145.936L323.547 128.023C320.804 130.469 318.659 133.513 317.278 136.919L339.52 145.936ZM337.84 150.08L315.598 141.063C312.871 147.79 313.335 155.39 316.86 161.735L337.84 150.08ZM339.52 153.104L318.54 164.759C319.847 167.111 321.539 169.226 323.547 171.017L339.52 153.104ZM357.104 168.784L374.075 151.813C373.751 151.49 373.418 151.176 373.077 150.871L357.104 168.784ZM358.448 170.352L338.479 183.665C338.864 184.242 339.274 184.803 339.707 185.345L358.448 170.352ZM357.104 199.696L374.075 216.667L374.075 216.667L357.104 199.696ZM334.704 222.096L351.675 239.067L351.675 239.067L334.704 222.096ZM320.032 195.104L302.54 178.672C302.45 178.767 302.361 178.863 302.273 178.96L320.032 195.104ZM320.032 166.992L302.273 183.136C302.361 183.233 302.45 183.329 302.54 183.424L320.032 166.992ZM294.72 166.992L277.228 150.56C277.138 150.655 277.049 150.751 276.961 150.848L294.72 166.992ZM294.72 195.104L276.961 211.248C277.049 211.345 277.138 211.441 277.228 211.536L294.72 195.104ZM320.032 131.6L302.54 115.168C302.45 115.263 302.361 115.359 302.273 115.456L320.032 131.6ZM320.032 103.6L302.273 119.744C302.361 119.841 302.45 119.937 302.54 120.032L320.032 103.6ZM294.72 103.6L277.228 87.1678C277.138 87.2631 277.049 87.3591 276.961 87.4558L294.72 103.6ZM294.72 131.6L276.961 147.744C277.049 147.841 277.138 147.937 277.228 148.032L294.72 131.6ZM262.8 200C265.566 200 272.049 200.708 277.671 206.329C283.292 211.951 284 218.434 284 221.2H236C236 225.833 237.174 233.716 243.729 240.271C250.284 246.826 258.167 248 262.8 248V200ZM284 221.2V77.504H236V221.2H284ZM284 77.504C284 80.2701 283.292 86.7529 277.671 92.3746C272.049 97.9962 265.566 98.704 262.8 98.704V50.704C258.167 50.704 250.284 51.8784 243.729 58.4334C237.174 64.9884 236 72.8712 236 77.504H284ZM262.8 98.704H330.224V50.704H262.8V98.704ZM330.224 98.704C328.238 98.704 325.995 98.3458 323.719 97.4354C321.449 96.5275 319.625 95.2619 318.255 93.9728L351.153 59.0192C345.506 53.7044 338.156 50.704 330.224 50.704V98.704ZM317.733 93.4666L340.133 115.867L374.075 81.9254L351.675 59.5254L317.733 93.4666ZM339.627 115.345C338.338 113.975 337.072 112.151 336.165 109.881C335.254 107.605 334.896 105.362 334.896 103.376H382.896C382.896 95.4437 379.896 88.0942 374.581 82.4473L339.627 115.345ZM334.896 103.376V126.896H382.896V103.376H334.896ZM334.896 126.896C334.896 124.676 335.314 120.123 338.479 115.375L378.417 142.001C382.179 136.357 382.896 130.61 382.896 126.896H334.896ZM338.479 115.375C338.988 114.611 339.425 114.078 339.666 113.797C339.919 113.502 340.091 113.328 340.133 113.285L374.075 147.226C375.236 146.065 376.894 144.286 378.417 142.001L338.479 115.375ZM341.131 112.343L323.547 128.023L355.493 163.849L373.077 148.169L341.131 112.343ZM317.278 136.919L315.598 141.063L360.082 159.097L361.762 154.953L317.278 136.919ZM316.86 161.735L318.54 164.759L360.5 141.449L358.82 138.425L316.86 161.735ZM323.547 171.017L341.131 186.697L373.077 150.871L355.493 135.191L323.547 171.017ZM340.133 185.754C340.091 185.712 339.919 185.538 339.666 185.243C339.425 184.962 338.988 184.429 338.479 183.665L378.417 157.039C376.894 154.754 375.236 152.975 374.075 151.813L340.133 185.754ZM339.707 185.345C337.174 182.178 336.031 179.023 335.501 176.901C334.971 174.784 334.896 173.087 334.896 172.144H382.896C382.896 169.414 382.589 162.109 377.189 155.359L339.707 185.345ZM334.896 172.144V195.216H382.896V172.144H334.896ZM334.896 195.216C334.896 193.407 335.207 191.161 336.165 188.767C337.134 186.344 338.551 184.308 340.133 182.725L374.075 216.667C380.064 210.677 382.896 202.945 382.896 195.216H334.896ZM340.133 182.725L317.733 205.125L351.675 239.067L374.075 216.667L340.133 182.725ZM317.733 205.125C319.043 203.815 320.872 202.444 323.245 201.436C325.638 200.419 328.048 200 330.224 200V248C338.621 248 346.131 244.61 351.675 239.067L317.733 205.125ZM330.224 200H262.8V248H330.224V200ZM307.376 222.8C315.026 222.8 328.361 221.621 337.791 211.248L302.273 178.96C304.933 176.034 307.651 175.075 308.46 174.838C309.227 174.614 309.051 174.8 307.376 174.8V222.8ZM337.524 211.536C346.634 201.839 347.504 188.703 347.504 181.104H299.504C299.504 182.163 299.459 182.931 299.407 183.447C299.354 183.973 299.306 184.122 299.342 183.979C299.375 183.845 299.535 183.236 299.973 182.336C300.417 181.424 301.209 180.088 302.54 178.672L337.524 211.536ZM347.504 181.104C347.504 173.516 346.663 160.288 337.524 150.56L302.54 183.424C301.19 181.987 300.393 180.634 299.951 179.722C299.516 178.823 299.36 178.22 299.331 178.102C299.299 177.973 299.35 178.141 299.405 178.689C299.458 179.227 299.504 180.019 299.504 181.104H347.504ZM337.791 150.848C328.361 140.475 315.026 139.296 307.376 139.296V187.296C309.051 187.296 309.227 187.482 308.46 187.258C307.651 187.021 304.933 186.062 302.273 183.136L337.791 150.848ZM307.376 139.296C299.567 139.296 286.611 140.571 277.228 150.56L312.212 183.424C309.681 186.119 307.146 187.025 306.348 187.258C305.603 187.475 305.77 187.296 307.376 187.296V139.296ZM276.961 150.848C272.157 156.132 269.955 162.178 268.853 166.809C267.716 171.582 267.36 176.497 267.36 181.104H315.36C315.36 179.998 315.405 179.18 315.46 178.613C315.515 178.036 315.569 177.834 315.547 177.927C315.528 178.008 315.389 178.576 314.981 179.446C314.569 180.326 313.804 181.678 312.479 183.136L276.961 150.848ZM267.36 181.104C267.36 188.594 268.167 201.574 276.961 211.248L312.479 178.96C313.785 180.397 314.545 181.732 314.96 182.613C315.371 183.484 315.514 184.058 315.537 184.155C315.563 184.262 315.512 184.079 315.458 183.524C315.405 182.978 315.36 182.184 315.36 181.104H267.36ZM277.228 211.536C286.611 221.525 299.567 222.8 307.376 222.8V174.8C305.77 174.8 305.603 174.621 306.348 174.838C307.146 175.071 309.681 175.977 312.212 178.672L277.228 211.536ZM307.376 159.296C315.026 159.296 328.361 158.117 337.791 147.744L302.273 115.456C304.933 112.53 307.651 111.571 308.46 111.334C309.227 111.11 309.051 111.296 307.376 111.296V159.296ZM337.524 148.032C346.634 138.335 347.504 125.199 347.504 117.6H299.504C299.504 118.659 299.459 119.427 299.407 119.943C299.354 120.469 299.306 120.618 299.342 120.475C299.375 120.341 299.535 119.732 299.973 118.832C300.417 117.92 301.209 116.584 302.54 115.168L337.524 148.032ZM347.504 117.6C347.504 110.001 346.634 96.8653 337.524 87.1678L302.54 120.032C301.209 118.616 300.417 117.28 299.973 116.368C299.535 115.468 299.375 114.859 299.342 114.725C299.306 114.582 299.354 114.731 299.407 115.257C299.459 115.773 299.504 116.541 299.504 117.6H347.504ZM337.791 87.4559C328.361 77.0835 315.026 75.904 307.376 75.904V123.904C309.051 123.904 309.227 124.09 308.46 123.866C307.651 123.629 304.933 122.67 302.273 119.744L337.791 87.4559ZM307.376 75.904C299.567 75.904 286.611 77.1795 277.228 87.1678L312.212 120.032C309.681 122.727 307.146 123.633 306.348 123.866C305.603 124.083 305.77 123.904 307.376 123.904V75.904ZM276.961 87.4558C268.167 97.13 267.36 110.11 267.36 117.6H315.36C315.36 116.52 315.405 115.726 315.458 115.18C315.512 114.625 315.563 114.442 315.537 114.549C315.514 114.646 315.371 115.22 314.96 116.091C314.545 116.972 313.785 118.307 312.479 119.744L276.961 87.4558ZM267.36 117.6C267.36 125.09 268.167 138.07 276.961 147.744L312.479 115.456C313.785 116.893 314.545 118.228 314.96 119.109C315.371 119.98 315.514 120.554 315.537 120.651C315.563 120.758 315.512 120.575 315.458 120.02C315.405 119.474 315.36 118.68 315.36 117.6H267.36ZM277.228 148.032C286.611 158.02 299.567 159.296 307.376 159.296V111.296C305.77 111.296 305.603 111.117 306.348 111.334C307.146 111.567 309.681 112.473 312.212 115.168L277.228 148.032ZM401.659 222.096L418.63 205.125L418.63 205.125L401.659 222.096ZM379.259 199.696L396.23 182.725C396.058 182.554 395.884 182.385 395.708 182.219L379.259 199.696ZM379.259 98.896L362.288 81.9254L362.288 81.9255L379.259 98.896ZM401.659 76.496L385.21 59.0192C385.034 59.1853 384.86 59.3541 384.688 59.5254L401.659 76.496ZM454.635 76.496L471.606 59.5254L454.635 76.496ZM477.035 199.696L460.586 182.219C460.41 182.385 460.236 182.554 460.064 182.725L477.035 199.696ZM454.635 222.096L437.664 205.125C437.493 205.297 437.324 205.471 437.158 205.647L454.635 222.096ZM406.139 200C408.315 200 410.725 200.419 413.118 201.436C415.491 202.444 417.32 203.815 418.63 205.125L384.688 239.067C390.232 244.61 397.742 248 406.139 248V200ZM418.63 205.125L396.23 182.725L362.288 216.667L384.688 239.067L418.63 205.125ZM395.708 182.219C397.31 183.728 398.842 185.759 399.919 188.293C400.989 190.811 401.355 193.224 401.355 195.216H353.355C353.355 203.416 356.571 211.301 362.81 217.173L395.708 182.219ZM401.355 195.216V103.376H353.355V195.216H401.355ZM401.355 103.376C401.355 105.552 400.936 107.962 399.919 110.355C398.911 112.728 397.54 114.557 396.23 115.867L362.288 81.9255C356.745 87.4685 353.355 94.9793 353.355 103.376H401.355ZM396.23 115.867L418.63 93.4666L384.688 59.5254L362.288 81.9254L396.23 115.867ZM418.108 93.9728C416.738 95.2619 414.914 96.5275 412.644 97.4354C410.368 98.3458 408.125 98.704 406.139 98.704V50.704C398.207 50.704 390.857 53.7044 385.21 59.0192L418.108 93.9728ZM406.139 98.704H450.155V50.704H406.139V98.704ZM450.155 98.704C448.346 98.704 446.1 98.3932 443.706 97.4354C441.283 96.4665 439.247 95.0494 437.664 93.4666L471.606 59.5254C465.616 53.5357 457.884 50.704 450.155 50.704V98.704ZM437.664 93.4666L460.064 115.867L494.006 81.9254L471.606 59.5254L437.664 93.4666ZM460.064 115.867C458.754 114.557 457.383 112.728 456.375 110.355C455.358 107.962 454.939 105.552 454.939 103.376H502.939C502.939 94.9793 499.549 87.4685 494.006 81.9254L460.064 115.867ZM454.939 103.376V195.216H502.939V103.376H454.939ZM454.939 195.216C454.939 193.224 455.305 190.811 456.375 188.293C457.452 185.759 458.984 183.727 460.586 182.219L493.484 217.173C499.723 211.301 502.939 203.416 502.939 195.216H454.939ZM460.064 182.725L437.664 205.125L471.606 239.067L494.006 216.667L460.064 182.725ZM437.158 205.647C438.667 204.045 440.698 202.513 443.232 201.436C445.75 200.366 448.163 200 450.155 200V248C458.355 248 466.24 244.784 472.112 238.545L437.158 205.647ZM450.155 200H406.139V248H450.155V200ZM419.355 218.096H436.939V170.096H419.355V218.096ZM436.939 218.096C444.363 218.096 453.42 215.257 459.667 206.928C464.94 199.897 465.643 192.222 465.643 187.824H417.643C417.643 187.607 417.562 183.068 421.267 178.128C423.292 175.428 426.036 173.201 429.25 171.773C432.324 170.406 435.082 170.096 436.939 170.096V218.096ZM465.643 187.824V110.88H417.643V187.824H465.643ZM465.643 110.88C465.643 106.51 464.963 98.8784 459.788 91.8552C453.604 83.4627 444.524 80.496 436.939 80.496V128.496C435.029 128.496 432.219 128.17 429.105 126.762C425.856 125.292 423.131 123.023 421.146 120.329C417.539 115.434 417.643 110.994 417.643 110.88H465.643ZM436.939 80.496H419.355V128.496H436.939V80.496ZM419.355 80.496C411.583 80.496 402.503 83.6316 396.428 92.0777C391.404 99.0618 390.763 106.595 390.763 110.88H438.763C438.763 110.909 438.887 115.25 435.394 120.106C433.456 122.801 430.747 125.137 427.437 126.67C424.256 128.144 421.357 128.496 419.355 128.496V80.496ZM390.763 110.88V187.824H438.763V110.88H390.763ZM390.763 187.824C390.763 192.134 391.425 199.711 396.546 206.706C402.688 215.095 411.748 218.096 419.355 218.096V170.096C421.303 170.096 424.149 170.431 427.291 171.861C430.566 173.353 433.296 175.646 435.276 178.35C438.866 183.254 438.763 187.695 438.763 187.824H390.763ZM572.065 76.496L589.036 59.5254C588.864 59.3541 588.69 59.1853 588.514 59.0192L572.065 76.496ZM594.465 98.896L611.942 82.4473C611.776 82.2708 611.607 82.0968 611.436 81.9254L594.465 98.896ZM595.809 128.688L615.778 142.001L615.779 142.001L595.809 128.688ZM594.465 130.256L610.438 148.169C610.78 147.864 611.112 147.55 611.436 147.226L594.465 130.256ZM576.881 145.936L560.908 128.023C558.165 130.469 556.02 133.513 554.64 136.919L576.881 145.936ZM575.201 150.08L552.96 141.063C550.232 147.79 550.696 155.39 554.221 161.735L575.201 150.08ZM576.881 153.104L555.901 164.759C557.208 167.111 558.9 169.226 560.908 171.017L576.881 153.104ZM594.465 168.784L611.436 151.813C611.112 151.49 610.78 151.176 610.438 150.871L594.465 168.784ZM595.809 170.352L575.84 183.665C576.225 184.242 576.635 184.803 577.068 185.345L595.809 170.352ZM594.465 199.696L611.436 216.667L611.436 216.667L594.465 199.696ZM572.065 222.096L589.036 239.067L589.036 239.067L572.065 222.096ZM557.393 195.104L539.901 178.672C539.811 178.767 539.723 178.863 539.635 178.96L557.393 195.104ZM557.393 166.992L539.635 183.136C539.723 183.233 539.811 183.329 539.901 183.424L557.393 166.992ZM532.081 166.992L514.589 150.56C514.499 150.655 514.411 150.751 514.323 150.848L532.081 166.992ZM532.081 195.104L514.323 211.248C514.411 211.345 514.499 211.441 514.589 211.536L532.081 195.104ZM557.393 131.6L539.901 115.168C539.811 115.263 539.723 115.359 539.635 115.456L557.393 131.6ZM557.393 103.6L539.635 119.744C539.723 119.841 539.811 119.937 539.901 120.032L557.393 103.6ZM532.081 103.6L514.589 87.1678C514.499 87.2631 514.411 87.3591 514.323 87.4558L532.081 103.6ZM532.081 131.6L514.323 147.744C514.411 147.841 514.499 147.937 514.589 148.032L532.081 131.6ZM500.161 200C502.927 200 509.41 200.708 515.032 206.329C520.653 211.951 521.361 218.434 521.361 221.2H473.361C473.361 225.833 474.536 233.716 481.091 240.271C487.646 246.826 495.528 248 500.161 248V200ZM521.361 221.2V77.504H473.361V221.2H521.361ZM521.361 77.504C521.361 80.2701 520.653 86.7529 515.032 92.3746C509.41 97.9962 502.927 98.704 500.161 98.704V50.704C495.528 50.704 487.646 51.8784 481.091 58.4334C474.536 64.9884 473.361 72.8712 473.361 77.504H521.361ZM500.161 98.704H567.585V50.704H500.161V98.704ZM567.585 98.704C565.6 98.704 563.356 98.3458 561.08 97.4354C558.81 96.5275 556.986 95.2619 555.616 93.9728L588.514 59.0192C582.867 53.7044 575.518 50.704 567.585 50.704V98.704ZM555.095 93.4666L577.495 115.867L611.436 81.9254L589.036 59.5254L555.095 93.4666ZM576.988 115.345C575.699 113.975 574.434 112.151 573.526 109.881C572.615 107.605 572.257 105.362 572.257 103.376H620.257C620.257 95.4437 617.257 88.0942 611.942 82.4473L576.988 115.345ZM572.257 103.376V126.896H620.257V103.376H572.257ZM572.257 126.896C572.257 124.676 572.675 120.123 575.84 115.375L615.779 142.001C619.541 136.357 620.257 130.61 620.257 126.896H572.257ZM575.84 115.375C576.349 114.611 576.786 114.078 577.027 113.797C577.28 113.502 577.452 113.328 577.495 113.285L611.436 147.226C612.597 146.065 614.255 144.286 615.778 142.001L575.84 115.375ZM578.492 112.343L560.908 128.023L592.854 163.849L610.438 148.169L578.492 112.343ZM554.64 136.919L552.96 141.063L597.443 159.097L599.123 154.953L554.64 136.919ZM554.221 161.735L555.901 164.759L597.861 141.449L596.181 138.425L554.221 161.735ZM560.908 171.017L578.492 186.697L610.438 150.871L592.854 135.191L560.908 171.017ZM577.495 185.754C577.452 185.712 577.28 185.538 577.027 185.243C576.786 184.962 576.349 184.429 575.84 183.665L615.778 157.039C614.255 154.754 612.597 152.975 611.436 151.813L577.495 185.754ZM577.068 185.345C574.535 182.178 573.392 179.023 572.862 176.901C572.333 174.784 572.257 173.087 572.257 172.144H620.257C620.257 169.414 619.95 162.109 614.55 155.359L577.068 185.345ZM572.257 172.144V195.216H620.257V172.144H572.257ZM572.257 195.216C572.257 193.407 572.568 191.161 573.526 188.767C574.495 186.344 575.912 184.308 577.495 182.725L611.436 216.667C617.426 210.677 620.257 202.945 620.257 195.216H572.257ZM577.495 182.725L555.095 205.125L589.036 239.067L611.436 216.667L577.495 182.725ZM555.095 205.125C556.405 203.815 558.234 202.444 560.606 201.436C562.999 200.419 565.409 200 567.585 200V248C575.982 248 583.493 244.61 589.036 239.067L555.095 205.125ZM567.585 200H500.161V248H567.585V200ZM544.737 222.8C552.387 222.8 565.722 221.621 575.152 211.248L539.635 178.96C542.294 176.034 545.012 175.075 545.821 174.838C546.588 174.614 546.412 174.8 544.737 174.8V222.8ZM574.886 211.536C583.995 201.839 584.865 188.703 584.865 181.104H536.865C536.865 182.163 536.82 182.931 536.768 183.447C536.715 183.973 536.667 184.122 536.703 183.979C536.736 183.845 536.896 183.236 537.334 182.336C537.779 181.424 538.571 180.088 539.901 178.672L574.886 211.536ZM584.865 181.104C584.865 173.516 584.024 160.288 574.886 150.56L539.901 183.424C538.551 181.987 537.754 180.634 537.313 179.722C536.877 178.823 536.721 178.22 536.692 178.102C536.661 177.973 536.711 178.141 536.766 178.689C536.819 179.227 536.865 180.019 536.865 181.104H584.865ZM575.152 150.848C565.722 140.475 552.387 139.296 544.737 139.296V187.296C546.412 187.296 546.588 187.482 545.821 187.258C545.012 187.021 542.294 186.062 539.635 183.136L575.152 150.848ZM544.737 139.296C536.929 139.296 523.972 140.571 514.589 150.56L549.574 183.424C547.042 186.119 544.508 187.025 543.709 187.258C542.964 187.475 543.131 187.296 544.737 187.296V139.296ZM514.323 150.848C509.519 156.132 507.316 162.178 506.214 166.809C505.078 171.582 504.721 176.497 504.721 181.104H552.721C552.721 179.998 552.767 179.18 552.821 178.613C552.877 178.036 552.931 177.834 552.909 177.927C552.889 178.008 552.75 178.576 552.342 179.446C551.93 180.326 551.165 181.678 549.84 183.136L514.323 150.848ZM504.721 181.104C504.721 188.594 505.528 201.574 514.323 211.248L549.84 178.96C551.146 180.397 551.907 181.732 552.322 182.613C552.732 183.484 552.875 184.058 552.899 184.155C552.924 184.262 552.873 184.079 552.819 183.524C552.766 182.978 552.721 182.184 552.721 181.104H504.721ZM514.589 211.536C523.972 221.525 536.929 222.8 544.737 222.8V174.8C543.131 174.8 542.964 174.621 543.709 174.838C544.508 175.071 547.042 175.977 549.574 178.672L514.589 211.536ZM544.737 159.296C552.387 159.296 565.722 158.117 575.152 147.744L539.635 115.456C542.294 112.53 545.012 111.571 545.821 111.334C546.588 111.11 546.412 111.296 544.737 111.296V159.296ZM574.886 148.032C583.995 138.335 584.865 125.199 584.865 117.6H536.865C536.865 118.659 536.82 119.427 536.768 119.943C536.715 120.469 536.667 120.618 536.703 120.475C536.736 120.341 536.896 119.732 537.334 118.832C537.779 117.92 538.571 116.584 539.901 115.168L574.886 148.032ZM584.865 117.6C584.865 110.001 583.995 96.8653 574.886 87.1678L539.901 120.032C538.571 118.616 537.779 117.28 537.334 116.368C536.896 115.468 536.736 114.859 536.703 114.725C536.667 114.582 536.715 114.731 536.768 115.257C536.82 115.773 536.865 116.541 536.865 117.6H584.865ZM575.152 87.4559C565.722 77.0835 552.387 75.904 544.737 75.904V123.904C546.412 123.904 546.588 124.09 545.821 123.866C545.012 123.629 542.294 122.67 539.635 119.744L575.152 87.4559ZM544.737 75.904C536.929 75.904 523.972 77.1795 514.589 87.1678L549.574 120.032C547.042 122.727 544.508 123.633 543.709 123.866C542.964 124.083 543.131 123.904 544.737 123.904V75.904ZM514.323 87.4558C505.528 97.13 504.721 110.11 504.721 117.6H552.721C552.721 116.52 552.766 115.726 552.819 115.18C552.873 114.625 552.924 114.442 552.899 114.549C552.875 114.646 552.732 115.22 552.322 116.091C551.907 116.972 551.146 118.307 549.84 119.744L514.323 87.4558ZM504.721 117.6C504.721 125.09 505.528 138.07 514.323 147.744L549.84 115.456C551.146 116.893 551.907 118.228 552.322 119.109C552.732 119.98 552.875 120.554 552.899 120.651C552.924 120.758 552.873 120.575 552.819 120.02C552.766 119.474 552.721 118.68 552.721 117.6H504.721ZM514.589 148.032C523.972 158.02 536.929 159.296 544.737 159.296V111.296C543.131 111.296 542.964 111.117 543.709 111.334C544.508 111.567 547.042 112.473 549.574 115.168L514.589 148.032ZM678.709 104.496V80.496C665.454 80.496 654.709 91.2412 654.709 104.496H678.709ZM678.709 136.304H654.709C654.709 149.559 665.454 160.304 678.709 160.304V136.304ZM678.709 162.4V138.4C665.454 138.4 654.709 149.145 654.709 162.4H678.709ZM678.709 194.096H654.709C654.709 207.351 665.454 218.096 678.709 218.096V194.096ZM644.213 200C646.979 200 653.461 200.708 659.083 206.329C664.705 211.951 665.413 218.434 665.413 221.2H617.413C617.413 225.833 618.587 233.716 625.142 240.271C631.697 246.826 639.58 248 644.213 248V200ZM665.413 221.2V77.504H617.413V221.2H665.413ZM665.413 77.504C665.413 80.2701 664.705 86.7529 659.083 92.3746C653.461 97.9962 646.979 98.704 644.213 98.704V50.704C639.58 50.704 631.697 51.8784 625.142 58.4334C618.587 64.9884 617.413 72.8712 617.413 77.504H665.413ZM644.213 98.704H722.277V50.704H644.213V98.704ZM722.277 98.704C719.51 98.704 713.028 97.9962 707.406 92.3746C701.784 86.7529 701.077 80.2701 701.077 77.504H749.077C749.077 72.8712 747.902 64.9884 741.347 58.4334C734.792 51.8784 726.909 50.704 722.277 50.704V98.704ZM701.077 77.504V101.696H749.077V77.504H701.077ZM701.077 101.696C701.077 98.9299 701.784 92.4471 707.406 86.8254C713.028 81.2038 719.51 80.496 722.277 80.496V128.496C726.909 128.496 734.792 127.322 741.347 120.767C747.902 114.212 749.077 106.329 749.077 101.696H701.077ZM722.277 80.496H678.709V128.496H722.277V80.496ZM654.709 104.496V136.304H702.709V104.496H654.709ZM678.709 160.304H718.469V112.304H678.709V160.304ZM718.469 160.304C715.702 160.304 709.22 159.596 703.598 153.975C697.976 148.353 697.269 141.87 697.269 139.104H745.269C745.269 134.471 744.094 126.588 737.539 120.033C730.984 113.478 723.101 112.304 718.469 112.304V160.304ZM697.269 139.104V159.6H745.269V139.104H697.269ZM697.269 159.6C697.269 156.834 697.976 150.351 703.598 144.729C709.22 139.108 715.702 138.4 718.469 138.4V186.4C723.101 186.4 730.984 185.226 737.539 178.671C744.094 172.116 745.269 164.233 745.269 159.6H697.269ZM718.469 138.4H678.709V186.4H718.469V138.4ZM654.709 162.4V194.096H702.709V162.4H654.709ZM678.709 218.096H722.277V170.096H678.709V218.096ZM722.277 218.096C719.51 218.096 713.028 217.388 707.406 211.767C701.784 206.145 701.077 199.662 701.077 196.896H749.077C749.077 192.263 747.902 184.38 741.347 177.825C734.792 171.27 726.909 170.096 722.277 170.096V218.096ZM701.077 196.896V221.2H749.077V196.896H701.077ZM701.077 221.2C701.077 218.434 701.784 211.951 707.406 206.329C713.028 200.708 719.51 200 722.277 200V248C726.909 248 734.792 246.826 741.347 240.271C747.902 233.716 749.077 225.833 749.077 221.2H701.077ZM722.277 200H644.213V248H722.277V200ZM780.217 194.096H756.217C756.217 207.351 766.962 218.096 780.217 218.096V194.096ZM745.721 200C748.487 200 754.97 200.708 760.592 206.329C766.213 211.951 766.921 218.434 766.921 221.2H718.921C718.921 225.833 720.096 233.716 726.651 240.271C733.206 246.826 741.088 248 745.721 248V200ZM766.921 221.2V77.504H718.921V221.2H766.921ZM766.921 77.504C766.921 80.2701 766.213 86.7529 760.592 92.3746C754.97 97.9962 748.487 98.704 745.721 98.704V50.704C741.088 50.704 733.206 51.8784 726.651 58.4334C720.096 64.9884 718.921 72.8712 718.921 77.504H766.921ZM745.721 98.704H777.417V50.704H745.721V98.704ZM777.417 98.704C774.651 98.704 768.168 97.9962 762.547 92.3746C756.925 86.7529 756.217 80.2701 756.217 77.504H804.217C804.217 72.8712 803.043 64.9884 796.488 58.4334C789.933 51.8784 782.05 50.704 777.417 50.704V98.704ZM756.217 77.504V194.096H804.217V77.504H756.217ZM780.217 218.096H808.441V170.096H780.217V218.096ZM808.441 218.096C805.675 218.096 799.192 217.388 793.571 211.767C787.949 206.145 787.241 199.662 787.241 196.896H835.241C835.241 192.263 834.067 184.38 827.512 177.825C820.957 171.27 813.074 170.096 808.441 170.096V218.096ZM787.241 196.896V221.2H835.241V196.896H787.241ZM787.241 221.2C787.241 218.434 787.949 211.951 793.571 206.329C799.192 200.708 805.675 200 808.441 200V248C813.074 248 820.957 246.826 827.512 240.271C834.067 233.716 835.241 225.833 835.241 221.2H787.241ZM808.441 200H745.721V248H808.441V200Z" fill="#FEFEFE" mask="url(#path-2-outside-1_3_6749)"/>
<path d="M262.8 224C260.933 224 260 223.067 260 221.2V77.504C260 75.6373 260.933 74.704 262.8 74.704H330.224C331.941 74.704 333.435 75.3013 334.704 76.496L357.104 98.896C358.299 100.165 358.896 101.659 358.896 103.376V126.896C358.896 127.643 358.747 128.24 358.448 128.688C358.149 129.136 357.701 129.659 357.104 130.256L339.52 145.936L337.84 150.08L339.52 153.104L357.104 168.784C357.701 169.381 358.149 169.904 358.448 170.352C358.747 170.725 358.896 171.323 358.896 172.144V195.216C358.896 197.008 358.299 198.501 357.104 199.696L334.704 222.096C333.435 223.365 331.941 224 330.224 224H262.8ZM307.376 198.8C313.573 198.8 317.792 197.568 320.032 195.104C322.347 192.64 323.504 187.973 323.504 181.104C323.504 174.16 322.347 169.456 320.032 166.992C317.792 164.528 313.573 163.296 307.376 163.296C301.253 163.296 297.035 164.528 294.72 166.992C292.48 169.456 291.36 174.16 291.36 181.104C291.36 187.973 292.48 192.64 294.72 195.104C297.035 197.568 301.253 198.8 307.376 198.8ZM307.376 135.296C313.573 135.296 317.792 134.064 320.032 131.6C322.347 129.136 323.504 124.469 323.504 117.6C323.504 110.731 322.347 106.064 320.032 103.6C317.792 101.136 313.573 99.904 307.376 99.904C301.253 99.904 297.035 101.136 294.72 103.6C292.48 106.064 291.36 110.731 291.36 117.6C291.36 124.469 292.48 129.136 294.72 131.6C297.035 134.064 301.253 135.296 307.376 135.296ZM406.139 224C404.422 224 402.928 223.365 401.659 222.096L379.259 199.696C377.99 198.501 377.355 197.008 377.355 195.216V103.376C377.355 101.659 377.99 100.165 379.259 98.896L401.659 76.496C402.928 75.3013 404.422 74.704 406.139 74.704H450.155C451.947 74.704 453.44 75.3013 454.635 76.496L477.035 98.896C478.304 100.165 478.939 101.659 478.939 103.376V195.216C478.939 197.008 478.304 198.501 477.035 199.696L454.635 222.096C453.44 223.365 451.947 224 450.155 224H406.139ZM419.355 194.096H436.939C440.075 194.096 441.643 192.005 441.643 187.824V110.88C441.643 106.624 440.075 104.496 436.939 104.496H419.355C416.294 104.496 414.763 106.624 414.763 110.88V187.824C414.763 192.005 416.294 194.096 419.355 194.096ZM500.161 224C498.295 224 497.361 223.067 497.361 221.2V77.504C497.361 75.6373 498.295 74.704 500.161 74.704H567.585C569.303 74.704 570.796 75.3013 572.065 76.496L594.465 98.896C595.66 100.165 596.257 101.659 596.257 103.376V126.896C596.257 127.643 596.108 128.24 595.809 128.688C595.511 129.136 595.063 129.659 594.465 130.256L576.881 145.936L575.201 150.08L576.881 153.104L594.465 168.784C595.063 169.381 595.511 169.904 595.809 170.352C596.108 170.725 596.257 171.323 596.257 172.144V195.216C596.257 197.008 595.66 198.501 594.465 199.696L572.065 222.096C570.796 223.365 569.303 224 567.585 224H500.161ZM544.737 198.8C550.935 198.8 555.153 197.568 557.393 195.104C559.708 192.64 560.865 187.973 560.865 181.104C560.865 174.16 559.708 169.456 557.393 166.992C555.153 164.528 550.935 163.296 544.737 163.296C538.615 163.296 534.396 164.528 532.081 166.992C529.841 169.456 528.721 174.16 528.721 181.104C528.721 187.973 529.841 192.64 532.081 195.104C534.396 197.568 538.615 198.8 544.737 198.8ZM544.737 135.296C550.935 135.296 555.153 134.064 557.393 131.6C559.708 129.136 560.865 124.469 560.865 117.6C560.865 110.731 559.708 106.064 557.393 103.6C555.153 101.136 550.935 99.904 544.737 99.904C538.615 99.904 534.396 101.136 532.081 103.6C529.841 106.064 528.721 110.731 528.721 117.6C528.721 124.469 529.841 129.136 532.081 131.6C534.396 134.064 538.615 135.296 544.737 135.296ZM644.213 224C642.346 224 641.413 223.067 641.413 221.2V77.504C641.413 75.6373 642.346 74.704 644.213 74.704H722.277C724.143 74.704 725.077 75.6373 725.077 77.504V101.696C725.077 103.563 724.143 104.496 722.277 104.496H678.709V136.304H718.469C720.335 136.304 721.269 137.237 721.269 139.104V159.6C721.269 161.467 720.335 162.4 718.469 162.4H678.709V194.096H722.277C724.143 194.096 725.077 195.029 725.077 196.896V221.2C725.077 223.067 724.143 224 722.277 224H644.213ZM745.721 224C743.855 224 742.921 223.067 742.921 221.2V77.504C742.921 75.6373 743.855 74.704 745.721 74.704H777.417C779.284 74.704 780.217 75.6373 780.217 77.504V194.096H808.441C810.308 194.096 811.241 195.029 811.241 196.896V221.2C811.241 223.067 810.308 224 808.441 224H745.721Z" fill="#C93434"/>
<mask id="path-5-outside-2_3_6749" maskUnits="userSpaceOnUse" x="5" y="234" width="1059" height="217" fill="black">
<rect fill="white" x="5" y="234" width="1059" height="217"/>
<path d="M32.456 408C30.5893 408 29.656 407.067 29.656 405.2V301.376C29.656 300.405 30.0293 299.285 30.776 298.016L57.32 260.384C58.1413 259.264 59.336 258.704 60.904 258.704H97.976C99.6187 258.704 100.813 259.264 101.56 260.384L128.216 298.016C128.963 299.061 129.336 300.181 129.336 301.376V405.2C129.336 407.067 128.403 408 126.536 408H94.84C92.9733 408 92.04 407.067 92.04 405.2V357.6H67.064V405.2C67.064 407.067 66.1307 408 64.264 408H32.456ZM79.496 333.52C86.3653 333.52 90.9947 332.027 93.384 329.04C95.848 325.979 97.08 320.192 97.08 311.68C97.08 303.168 95.848 297.419 93.384 294.432C90.9947 291.371 86.3653 289.84 79.496 289.84C72.7013 289.84 68.072 291.371 65.608 294.432C63.2187 297.419 62.024 303.168 62.024 311.68C62.024 320.192 63.2187 325.979 65.608 329.04C68.072 332.027 72.7013 333.52 79.496 333.52ZM149.405 408C147.538 408 146.605 407.067 146.605 405.2V261.504C146.605 259.637 147.538 258.704 149.405 258.704H181.101C182.968 258.704 183.901 259.637 183.901 261.504V378.096H212.125C213.992 378.096 214.925 379.029 214.925 380.896V405.2C214.925 407.067 213.992 408 212.125 408H149.405ZM252.617 408C250.825 408 249.331 407.365 248.137 406.096L225.737 383.696C224.467 382.501 223.833 381.008 223.833 379.216V287.376C223.833 285.659 224.467 284.165 225.737 282.896L248.137 260.496C249.331 259.301 250.825 258.704 252.617 258.704H297.753C299.47 258.704 300.963 259.301 302.233 260.496L324.633 282.896C325.902 284.165 326.537 285.659 326.537 287.376V379.216C326.537 381.008 325.902 382.501 324.633 383.696L302.233 406.096C300.963 407.365 299.47 408 297.753 408H252.617ZM264.489 426.704C262.622 426.704 261.689 425.771 261.689 423.904V408H290.249L295.177 422.336C295.55 423.456 295.363 424.464 294.617 425.36C293.945 426.256 293.049 426.704 291.929 426.704H264.489ZM267.289 378.096H282.969C286.105 378.096 287.673 376.005 287.673 371.824V294.88C287.673 290.624 286.105 288.496 282.969 288.496H267.289C264.227 288.496 262.697 290.624 262.697 294.88V371.824C262.697 376.005 264.227 378.096 267.289 378.096ZM373.156 408C371.364 408 369.871 407.365 368.676 406.096L346.276 383.696C345.007 382.501 344.372 381.008 344.372 379.216V261.504C344.372 259.637 345.306 258.704 347.172 258.704H378.868C380.735 258.704 381.668 259.637 381.668 261.504V375.856C381.668 377.349 382.415 378.096 383.908 378.096H402.276V261.504C402.276 259.637 403.21 258.704 405.077 258.704H436.773C438.639 258.704 439.572 259.637 439.572 261.504V405.2C439.572 407.067 438.639 408 436.773 408H373.156ZM460.275 408C458.408 408 457.475 407.067 457.475 405.2V261.504C457.475 259.637 458.408 258.704 460.275 258.704H491.971C493.838 258.704 494.771 259.637 494.771 261.504V405.2C494.771 407.067 493.838 408 491.971 408H460.275ZM515.409 408C513.542 408 512.609 407.067 512.609 405.2V261.504C512.609 259.637 513.542 258.704 515.409 258.704H547.105C548.971 258.704 549.905 259.637 549.905 261.504V378.096H578.129C579.995 378.096 580.929 379.029 580.929 380.896V405.2C580.929 407.067 579.995 408 578.129 408H515.409ZM591.852 408C589.986 408 589.052 407.067 589.052 405.2V301.376C589.052 300.405 589.426 299.285 590.172 298.016L616.716 260.384C617.538 259.264 618.732 258.704 620.3 258.704H657.372C659.015 258.704 660.21 259.264 660.956 260.384L687.612 298.016C688.359 299.061 688.732 300.181 688.732 301.376V405.2C688.732 407.067 687.799 408 685.932 408H654.236C652.37 408 651.436 407.067 651.436 405.2V357.6H626.46V405.2C626.46 407.067 625.527 408 623.66 408H591.852ZM638.892 333.52C645.762 333.52 650.391 332.027 652.78 329.04C655.244 325.979 656.476 320.192 656.476 311.68C656.476 303.168 655.244 297.419 652.78 294.432C650.391 291.371 645.762 289.84 638.892 289.84C632.098 289.84 627.468 291.371 625.004 294.432C622.615 297.419 621.42 303.168 621.42 311.68C621.42 320.192 622.615 325.979 625.004 329.04C627.468 332.027 632.098 333.52 638.892 333.52ZM708.017 408C706.151 408 705.217 407.067 705.217 405.2V261.504C705.217 259.637 706.151 258.704 708.017 258.704H776.337C778.129 258.704 779.623 259.301 780.817 260.496L803.217 282.896C804.487 284.165 805.121 285.659 805.121 287.376V379.216C805.121 381.008 804.487 382.501 803.217 383.696L780.817 406.096C779.623 407.365 778.129 408 776.337 408H708.017ZM742.625 378.096H763.121C766.257 378.096 767.825 376.005 767.825 371.824V294.88C767.825 290.624 766.257 288.496 763.121 288.496H742.625V378.096ZM850.95 408C849.233 408 847.74 407.365 846.47 406.096L824.07 383.696C822.801 382.501 822.166 381.008 822.166 379.216V287.376C822.166 285.659 822.801 284.165 824.07 282.896L846.47 260.496C847.74 259.301 849.233 258.704 850.95 258.704H894.966C896.758 258.704 898.252 259.301 899.446 260.496L921.846 282.896C923.116 284.165 923.75 285.659 923.75 287.376V379.216C923.75 381.008 923.116 382.501 921.846 383.696L899.446 406.096C898.252 407.365 896.758 408 894.966 408H850.95ZM864.166 378.096H881.75C884.886 378.096 886.454 376.005 886.454 371.824V294.88C886.454 290.624 884.886 288.496 881.75 288.496H864.166C861.105 288.496 859.574 290.624 859.574 294.88V371.824C859.574 376.005 861.105 378.096 864.166 378.096ZM944.412 408C942.546 408 941.612 407.067 941.612 405.2V261.504C941.612 259.637 942.546 258.704 944.412 258.704H1005.12C1006.91 258.704 1008.4 259.189 1009.6 260.16L1035.36 285.696C1036.18 286.443 1036.66 287.077 1036.81 287.6C1037.04 288.123 1037.15 288.981 1037.15 290.176V320.864C1037.15 321.835 1036.78 322.693 1036.03 323.44L1023.71 335.424L1013.29 344.384L1025.61 360.736L1038.27 387.84C1038.57 388.512 1038.79 389.184 1038.94 389.856C1039.16 390.453 1039.28 391.2 1039.28 392.096V405.2C1039.28 407.067 1038.34 408 1036.48 408H1006.91C1005.27 408 1004.15 407.253 1003.55 405.76L985.516 353.344H977.116V405.2C977.116 407.067 976.183 408 974.316 408H944.412ZM989.436 325.904C995.634 325.904 999.852 324.635 1002.09 322.096C1004.33 319.483 1005.45 314.629 1005.45 307.536C1005.45 300.368 1004.33 295.515 1002.09 292.976C999.852 290.363 995.634 289.056 989.436 289.056C983.314 289.056 979.095 290.363 976.78 292.976C974.466 295.515 973.308 300.368 973.308 307.536C973.308 314.629 974.466 319.483 976.78 322.096C979.095 324.635 983.314 325.904 989.436 325.904Z"/>
</mask>
<path d="M32.456 408C30.5893 408 29.656 407.067 29.656 405.2V301.376C29.656 300.405 30.0293 299.285 30.776 298.016L57.32 260.384C58.1413 259.264 59.336 258.704 60.904 258.704H97.976C99.6187 258.704 100.813 259.264 101.56 260.384L128.216 298.016C128.963 299.061 129.336 300.181 129.336 301.376V405.2C129.336 407.067 128.403 408 126.536 408H94.84C92.9733 408 92.04 407.067 92.04 405.2V357.6H67.064V405.2C67.064 407.067 66.1307 408 64.264 408H32.456ZM79.496 333.52C86.3653 333.52 90.9947 332.027 93.384 329.04C95.848 325.979 97.08 320.192 97.08 311.68C97.08 303.168 95.848 297.419 93.384 294.432C90.9947 291.371 86.3653 289.84 79.496 289.84C72.7013 289.84 68.072 291.371 65.608 294.432C63.2187 297.419 62.024 303.168 62.024 311.68C62.024 320.192 63.2187 325.979 65.608 329.04C68.072 332.027 72.7013 333.52 79.496 333.52ZM149.405 408C147.538 408 146.605 407.067 146.605 405.2V261.504C146.605 259.637 147.538 258.704 149.405 258.704H181.101C182.968 258.704 183.901 259.637 183.901 261.504V378.096H212.125C213.992 378.096 214.925 379.029 214.925 380.896V405.2C214.925 407.067 213.992 408 212.125 408H149.405ZM252.617 408C250.825 408 249.331 407.365 248.137 406.096L225.737 383.696C224.467 382.501 223.833 381.008 223.833 379.216V287.376C223.833 285.659 224.467 284.165 225.737 282.896L248.137 260.496C249.331 259.301 250.825 258.704 252.617 258.704H297.753C299.47 258.704 300.963 259.301 302.233 260.496L324.633 282.896C325.902 284.165 326.537 285.659 326.537 287.376V379.216C326.537 381.008 325.902 382.501 324.633 383.696L302.233 406.096C300.963 407.365 299.47 408 297.753 408H252.617ZM264.489 426.704C262.622 426.704 261.689 425.771 261.689 423.904V408H290.249L295.177 422.336C295.55 423.456 295.363 424.464 294.617 425.36C293.945 426.256 293.049 426.704 291.929 426.704H264.489ZM267.289 378.096H282.969C286.105 378.096 287.673 376.005 287.673 371.824V294.88C287.673 290.624 286.105 288.496 282.969 288.496H267.289C264.227 288.496 262.697 290.624 262.697 294.88V371.824C262.697 376.005 264.227 378.096 267.289 378.096ZM373.156 408C371.364 408 369.871 407.365 368.676 406.096L346.276 383.696C345.007 382.501 344.372 381.008 344.372 379.216V261.504C344.372 259.637 345.306 258.704 347.172 258.704H378.868C380.735 258.704 381.668 259.637 381.668 261.504V375.856C381.668 377.349 382.415 378.096 383.908 378.096H402.276V261.504C402.276 259.637 403.21 258.704 405.077 258.704H436.773C438.639 258.704 439.572 259.637 439.572 261.504V405.2C439.572 407.067 438.639 408 436.773 408H373.156ZM460.275 408C458.408 408 457.475 407.067 457.475 405.2V261.504C457.475 259.637 458.408 258.704 460.275 258.704H491.971C493.838 258.704 494.771 259.637 494.771 261.504V405.2C494.771 407.067 493.838 408 491.971 408H460.275ZM515.409 408C513.542 408 512.609 407.067 512.609 405.2V261.504C512.609 259.637 513.542 258.704 515.409 258.704H547.105C548.971 258.704 549.905 259.637 549.905 261.504V378.096H578.129C579.995 378.096 580.929 379.029 580.929 380.896V405.2C580.929 407.067 579.995 408 578.129 408H515.409ZM591.852 408C589.986 408 589.052 407.067 589.052 405.2V301.376C589.052 300.405 589.426 299.285 590.172 298.016L616.716 260.384C617.538 259.264 618.732 258.704 620.3 258.704H657.372C659.015 258.704 660.21 259.264 660.956 260.384L687.612 298.016C688.359 299.061 688.732 300.181 688.732 301.376V405.2C688.732 407.067 687.799 408 685.932 408H654.236C652.37 408 651.436 407.067 651.436 405.2V357.6H626.46V405.2C626.46 407.067 625.527 408 623.66 408H591.852ZM638.892 333.52C645.762 333.52 650.391 332.027 652.78 329.04C655.244 325.979 656.476 320.192 656.476 311.68C656.476 303.168 655.244 297.419 652.78 294.432C650.391 291.371 645.762 289.84 638.892 289.84C632.098 289.84 627.468 291.371 625.004 294.432C622.615 297.419 621.42 303.168 621.42 311.68C621.42 320.192 622.615 325.979 625.004 329.04C627.468 332.027 632.098 333.52 638.892 333.52ZM708.017 408C706.151 408 705.217 407.067 705.217 405.2V261.504C705.217 259.637 706.151 258.704 708.017 258.704H776.337C778.129 258.704 779.623 259.301 780.817 260.496L803.217 282.896C804.487 284.165 805.121 285.659 805.121 287.376V379.216C805.121 381.008 804.487 382.501 803.217 383.696L780.817 406.096C779.623 407.365 778.129 408 776.337 408H708.017ZM742.625 378.096H763.121C766.257 378.096 767.825 376.005 767.825 371.824V294.88C767.825 290.624 766.257 288.496 763.121 288.496H742.625V378.096ZM850.95 408C849.233 408 847.74 407.365 846.47 406.096L824.07 383.696C822.801 382.501 822.166 381.008 822.166 379.216V287.376C822.166 285.659 822.801 284.165 824.07 282.896L846.47 260.496C847.74 259.301 849.233 258.704 850.95 258.704H894.966C896.758 258.704 898.252 259.301 899.446 260.496L921.846 282.896C923.116 284.165 923.75 285.659 923.75 287.376V379.216C923.75 381.008 923.116 382.501 921.846 383.696L899.446 406.096C898.252 407.365 896.758 408 894.966 408H850.95ZM864.166 378.096H881.75C884.886 378.096 886.454 376.005 886.454 371.824V294.88C886.454 290.624 884.886 288.496 881.75 288.496H864.166C861.105 288.496 859.574 290.624 859.574 294.88V371.824C859.574 376.005 861.105 378.096 864.166 378.096ZM944.412 408C942.546 408 941.612 407.067 941.612 405.2V261.504C941.612 259.637 942.546 258.704 944.412 258.704H1005.12C1006.91 258.704 1008.4 259.189 1009.6 260.16L1035.36 285.696C1036.18 286.443 1036.66 287.077 1036.81 287.6C1037.04 288.123 1037.15 288.981 1037.15 290.176V320.864C1037.15 321.835 1036.78 322.693 1036.03 323.44L1023.71 335.424L1013.29 344.384L1025.61 360.736L1038.27 387.84C1038.57 388.512 1038.79 389.184 1038.94 389.856C1039.16 390.453 1039.28 391.2 1039.28 392.096V405.2C1039.28 407.067 1038.34 408 1036.48 408H1006.91C1005.27 408 1004.15 407.253 1003.55 405.76L985.516 353.344H977.116V405.2C977.116 407.067 976.183 408 974.316 408H944.412ZM989.436 325.904C995.634 325.904 999.852 324.635 1002.09 322.096C1004.33 319.483 1005.45 314.629 1005.45 307.536C1005.45 300.368 1004.33 295.515 1002.09 292.976C999.852 290.363 995.634 289.056 989.436 289.056C983.314 289.056 979.095 290.363 976.78 292.976C974.466 295.515 973.308 300.368 973.308 307.536C973.308 314.629 974.466 319.483 976.78 322.096C979.095 324.635 983.314 325.904 989.436 325.904Z" fill="#C93434"/>
<path d="M30.776 298.016L11.1639 284.182C10.783 284.722 10.4246 285.278 10.0896 285.848L30.776 298.016ZM57.32 260.384L37.9663 246.191C37.8791 246.31 37.7929 246.43 37.7079 246.55L57.32 260.384ZM101.56 260.384L81.5908 273.697C81.7164 273.885 81.8446 274.072 81.9754 274.256L101.56 260.384ZM128.216 298.016L108.631 311.888C108.65 311.914 108.668 311.94 108.686 311.966L128.216 298.016ZM92.04 357.6H116.04C116.04 344.345 105.295 333.6 92.04 333.6V357.6ZM67.064 357.6V333.6C53.8092 333.6 43.064 344.345 43.064 357.6H67.064ZM93.384 329.04L74.6877 313.992C74.6728 314.01 74.658 314.029 74.6432 314.047L93.384 329.04ZM93.384 294.432L74.4644 309.198C74.5977 309.369 74.7332 309.538 74.871 309.705L93.384 294.432ZM65.608 294.432L46.9117 279.384C46.8968 279.402 46.882 279.421 46.8671 279.439L65.608 294.432ZM65.608 329.04L46.6884 343.806C46.8217 343.977 46.9572 344.146 47.095 344.313L65.608 329.04ZM32.456 384C35.2221 384 41.7049 384.708 47.3266 390.329C52.9482 395.951 53.656 402.434 53.656 405.2H5.656C5.656 409.833 6.83046 417.716 13.3854 424.271C19.9404 430.826 27.8232 432 32.456 432V384ZM53.656 405.2V301.376H5.656V405.2H53.656ZM53.656 301.376C53.656 306.347 51.8496 309.526 51.4624 310.184L10.0896 285.848C8.20907 289.044 5.656 294.464 5.656 301.376H53.656ZM50.3881 311.85L76.9321 274.218L37.7079 246.55L11.1639 284.182L50.3881 311.85ZM76.6737 274.577C74.8374 277.081 72.253 279.339 69.0184 280.855C65.8831 282.325 62.9851 282.704 60.904 282.704V234.704C52.825 234.704 43.9398 238.046 37.9663 246.191L76.6737 274.577ZM60.904 282.704H97.976V234.704H60.904V282.704ZM97.976 282.704C96.1167 282.704 93.1902 282.389 89.9176 280.855C86.4629 279.236 83.5969 276.706 81.5908 273.697L121.529 247.071C115.317 237.752 105.623 234.704 97.976 234.704V282.704ZM81.9754 274.256L108.631 311.888L147.801 284.144L121.145 246.512L81.9754 274.256ZM108.686 311.966C106.757 309.264 105.336 305.567 105.336 301.376H153.336C153.336 294.796 151.169 288.858 147.746 284.066L108.686 311.966ZM105.336 301.376V405.2H153.336V301.376H105.336ZM105.336 405.2C105.336 402.434 106.044 395.951 111.665 390.329C117.287 384.708 123.77 384 126.536 384V432C131.169 432 139.052 430.826 145.607 424.271C152.162 417.716 153.336 409.833 153.336 405.2H105.336ZM126.536 384H94.84V432H126.536V384ZM94.84 384C97.6061 384 104.089 384.708 109.711 390.329C115.332 395.951 116.04 402.434 116.04 405.2H68.04C68.04 409.833 69.2145 417.716 75.7695 424.271C82.3244 430.826 90.2072 432 94.84 432V384ZM116.04 405.2V357.6H68.04V405.2H116.04ZM92.04 333.6H67.064V381.6H92.04V333.6ZM43.064 357.6V405.2H91.064V357.6H43.064ZM43.064 405.2C43.064 402.434 43.7718 395.951 49.3934 390.329C55.0151 384.708 61.4979 384 64.264 384V432C68.8968 432 76.7796 430.826 83.3346 424.271C89.8895 417.716 91.064 409.833 91.064 405.2H43.064ZM64.264 384H32.456V432H64.264V384ZM79.496 357.52C88.161 357.52 102.6 355.938 112.125 344.033L74.6432 314.047C77.0933 310.985 79.7994 309.866 80.7519 309.559C81.5755 309.293 81.374 309.52 79.496 309.52V357.52ZM112.08 344.088C116.561 338.521 118.593 332.272 119.63 327.402C120.711 322.323 121.08 316.952 121.08 311.68H73.08C73.08 313.243 73.0229 314.502 72.9376 315.493C72.8515 316.492 72.7459 317.107 72.6821 317.406C72.6153 317.72 72.6291 317.524 72.8555 316.982C73.0806 316.443 73.6158 315.324 74.6877 313.992L112.08 344.088ZM121.08 311.68C121.08 306.414 120.712 301.037 119.623 295.955C118.583 291.101 116.522 284.764 111.897 279.159L74.871 309.705C73.7223 308.313 73.1449 307.125 72.8978 306.541C72.6494 305.954 72.626 305.72 72.6887 306.013C72.7481 306.29 72.8524 306.888 72.9381 307.88C73.0229 308.862 73.08 310.117 73.08 311.68H121.08ZM112.304 279.665C102.831 267.528 88.3144 265.84 79.496 265.84V313.84C81.3313 313.84 81.4711 314.067 80.5857 313.775C79.5476 313.431 76.855 312.261 74.4644 309.198L112.304 279.665ZM79.496 265.84C70.5356 265.84 56.3784 267.622 46.9117 279.384L84.3043 309.48C82.0112 312.329 79.4784 313.439 78.4623 313.775C77.5988 314.06 77.7303 313.84 79.496 313.84V265.84ZM46.8671 279.439C42.3855 285.041 40.414 291.327 39.4219 296.101C38.3787 301.122 38.024 306.446 38.024 311.68H86.024C86.024 310.1 86.08 308.823 86.1642 307.817C86.2493 306.802 86.354 306.175 86.4181 305.867C86.4856 305.542 86.4724 305.743 86.244 306.299C86.0185 306.849 85.4688 308.025 84.3489 309.425L46.8671 279.439ZM38.024 311.68C38.024 316.92 38.3797 322.238 39.4157 327.257C40.405 332.049 42.3486 338.246 46.6884 343.806L84.5276 314.273C85.5712 315.611 86.0798 316.717 86.2844 317.223C86.4916 317.734 86.4957 317.897 86.4243 317.551C86.3561 317.221 86.2502 316.578 86.1647 315.555C86.0799 314.541 86.024 313.26 86.024 311.68H38.024ZM47.095 344.313C56.6087 355.845 70.6874 357.52 79.496 357.52V309.52C77.6869 309.52 77.4939 309.3 78.2961 309.559C79.2295 309.86 81.7723 310.92 84.121 313.767L47.095 344.313ZM183.901 378.096H159.901C159.901 391.351 170.646 402.096 183.901 402.096V378.096ZM149.405 384C152.171 384 158.654 384.708 164.276 390.329C169.897 395.951 170.605 402.434 170.605 405.2H122.605C122.605 409.833 123.779 417.716 130.334 424.271C136.889 430.826 144.772 432 149.405 432V384ZM170.605 405.2V261.504H122.605V405.2H170.605ZM170.605 261.504C170.605 264.27 169.897 270.753 164.276 276.375C158.654 281.996 152.171 282.704 149.405 282.704V234.704C144.772 234.704 136.889 235.878 130.334 242.433C123.779 248.988 122.605 256.871 122.605 261.504H170.605ZM149.405 282.704H181.101V234.704H149.405V282.704ZM181.101 282.704C178.335 282.704 171.852 281.996 166.23 276.375C160.609 270.753 159.901 264.27 159.901 261.504H207.901C207.901 256.871 206.727 248.988 200.172 242.433C193.617 235.878 185.734 234.704 181.101 234.704V282.704ZM159.901 261.504V378.096H207.901V261.504H159.901ZM183.901 402.096H212.125V354.096H183.901V402.096ZM212.125 402.096C209.359 402.096 202.876 401.388 197.254 395.767C191.633 390.145 190.925 383.662 190.925 380.896H238.925C238.925 376.263 237.751 368.38 231.196 361.825C224.641 355.27 216.758 354.096 212.125 354.096V402.096ZM190.925 380.896V405.2H238.925V380.896H190.925ZM190.925 405.2C190.925 402.434 191.633 395.951 197.254 390.329C202.876 384.708 209.359 384 212.125 384V432C216.758 432 224.641 430.826 231.196 424.271C237.751 417.716 238.925 409.833 238.925 405.2H190.925ZM212.125 384H149.405V432H212.125V384ZM248.137 406.096L265.613 389.647C265.447 389.471 265.278 389.297 265.107 389.125L248.137 406.096ZM225.737 383.696L242.707 366.725C242.536 366.554 242.362 366.385 242.185 366.219L225.737 383.696ZM225.737 282.896L208.766 265.925L208.766 265.925L225.737 282.896ZM248.137 260.496L265.107 277.467L265.107 277.467L248.137 260.496ZM302.233 260.496L319.203 243.525C319.032 243.354 318.858 243.185 318.681 243.019L302.233 260.496ZM324.633 282.896L341.603 265.925L341.603 265.925L324.633 282.896ZM324.633 383.696L308.184 366.219C308.007 366.385 307.833 366.554 307.662 366.725L324.633 383.696ZM302.233 406.096L319.203 423.067L319.203 423.067L302.233 406.096ZM261.689 408V384C248.434 384 237.689 394.745 237.689 408H261.689ZM290.249 408L312.945 400.198C309.614 390.507 300.496 384 290.249 384V408ZM295.177 422.336L317.945 414.747C317.921 414.676 317.897 414.605 317.873 414.534L295.177 422.336ZM294.617 425.36L276.179 409.996C275.917 410.31 275.662 410.632 275.417 410.96L294.617 425.36ZM252.617 384C254.608 384 257.022 384.366 259.54 385.436C262.073 386.513 264.105 388.045 265.613 389.647L230.66 422.545C236.532 428.784 244.417 432 252.617 432V384ZM265.107 389.125L242.707 366.725L208.766 400.667L231.166 423.067L265.107 389.125ZM242.185 366.219C243.788 367.728 245.32 369.759 246.396 372.293C247.467 374.811 247.833 377.224 247.833 379.216H199.833C199.833 387.416 203.049 395.301 209.288 401.173L242.185 366.219ZM247.833 379.216V287.376H199.833V379.216H247.833ZM247.833 287.376C247.833 289.552 247.414 291.962 246.396 294.355C245.388 296.728 244.017 298.557 242.707 299.867L208.766 265.925C203.223 271.469 199.833 278.979 199.833 287.376H247.833ZM242.707 299.867L265.107 277.467L231.166 243.525L208.766 265.925L242.707 299.867ZM265.107 277.467C263.524 279.049 261.488 280.466 259.066 281.435C256.672 282.393 254.426 282.704 252.617 282.704V234.704C244.888 234.704 237.156 237.536 231.166 243.525L265.107 277.467ZM252.617 282.704H297.753V234.704H252.617V282.704ZM297.753 282.704C295.767 282.704 293.523 282.346 291.247 281.435C288.977 280.528 287.153 279.262 285.784 277.973L318.681 243.019C313.034 237.704 305.685 234.704 297.753 234.704V282.704ZM285.262 277.467L307.662 299.867L341.603 265.925L319.203 243.525L285.262 277.467ZM307.662 299.866C306.352 298.556 304.981 296.728 303.973 294.355C302.955 291.962 302.537 289.552 302.537 287.376H350.537C350.537 278.979 347.146 271.469 341.603 265.925L307.662 299.866ZM302.537 287.376V379.216H350.537V287.376H302.537ZM302.537 379.216C302.537 377.224 302.902 374.811 303.973 372.293C305.049 369.759 306.581 367.728 308.184 366.219L341.081 401.173C347.32 395.301 350.537 387.416 350.537 379.216H302.537ZM307.662 366.725L285.262 389.125L319.203 423.067L341.603 400.667L307.662 366.725ZM285.262 389.125C286.572 387.815 288.401 386.444 290.773 385.436C293.166 384.419 295.577 384 297.753 384V432C306.149 432 313.66 428.61 319.203 423.067L285.262 389.125ZM297.753 384H252.617V432H297.753V384ZM264.489 402.704C267.255 402.704 273.737 403.412 279.359 409.033C284.981 414.655 285.689 421.138 285.689 423.904H237.689C237.689 428.537 238.863 436.42 245.418 442.975C251.973 449.53 259.856 450.704 264.489 450.704V402.704ZM285.689 423.904V408H237.689V423.904H285.689ZM261.689 432H290.249V384H261.689V432ZM267.552 415.802L272.48 430.138L317.873 414.534L312.945 400.198L267.552 415.802ZM272.408 429.925C271.507 427.223 270.966 423.62 271.718 419.562C272.472 415.489 274.286 412.267 276.179 409.996L313.054 440.724C319.201 433.348 320.907 423.634 317.945 414.747L272.408 429.925ZM275.417 410.96C277.049 408.783 279.447 406.532 282.707 404.902C285.968 403.271 289.207 402.704 291.929 402.704V450.704C300.603 450.704 308.612 446.699 313.817 439.76L275.417 410.96ZM291.929 402.704H264.489V450.704H291.929V402.704ZM267.289 402.096H282.969V354.096H267.289V402.096ZM282.969 402.096C290.392 402.096 299.45 399.257 305.696 390.928C310.97 383.897 311.673 376.222 311.673 371.824H263.673C263.673 371.607 263.591 367.068 267.297 362.128C269.322 359.427 272.066 357.201 275.279 355.773C278.354 354.406 281.111 354.096 282.969 354.096V402.096ZM311.673 371.824V294.88H263.673V371.824H311.673ZM311.673 294.88C311.673 290.51 310.993 282.878 305.818 275.855C299.634 267.463 290.553 264.496 282.969 264.496V312.496C281.059 312.496 278.248 312.17 275.134 310.762C271.885 309.292 269.16 307.023 267.175 304.329C263.568 299.434 263.673 294.994 263.673 294.88H311.673ZM282.969 264.496H267.289V312.496H282.969V264.496ZM267.289 264.496C259.516 264.496 250.436 267.632 244.361 276.078C239.338 283.062 238.697 290.595 238.697 294.88H286.697C286.697 294.909 286.821 299.25 283.328 304.106C281.39 306.801 278.68 309.137 275.371 310.67C272.19 312.144 269.29 312.496 267.289 312.496V264.496ZM238.697 294.88V371.824H286.697V294.88H238.697ZM238.697 371.824C238.697 376.134 239.359 383.711 244.48 390.706C250.622 399.095 259.682 402.096 267.289 402.096V354.096C269.236 354.096 272.082 354.431 275.224 355.861C278.5 357.353 281.23 359.646 283.209 362.35C286.799 367.254 286.697 371.695 286.697 371.824H238.697ZM368.676 406.096L386.153 389.647C385.987 389.471 385.818 389.297 385.647 389.125L368.676 406.096ZM346.276 383.696L363.247 366.725C363.076 366.554 362.902 366.385 362.725 366.219L346.276 383.696ZM402.276 378.096V402.096C415.531 402.096 426.276 391.351 426.276 378.096H402.276ZM373.156 384C375.148 384 377.562 384.366 380.08 385.436C382.613 386.513 384.645 388.045 386.153 389.647L351.2 422.545C357.072 428.784 364.957 432 373.156 432V384ZM385.647 389.125L363.247 366.725L329.306 400.667L351.706 423.067L385.647 389.125ZM362.725 366.219C364.328 367.728 365.86 369.759 366.936 372.293C368.007 374.811 368.372 377.224 368.372 379.216H320.372C320.372 387.416 323.589 395.301 329.828 401.173L362.725 366.219ZM368.372 379.216V261.504H320.372V379.216H368.372ZM368.372 261.504C368.372 264.27 367.665 270.753 362.043 276.375C356.421 281.996 349.939 282.704 347.172 282.704V234.704C342.54 234.704 334.657 235.878 328.102 242.433C321.547 248.988 320.372 256.871 320.372 261.504H368.372ZM347.172 282.704H378.868V234.704H347.172V282.704ZM378.868 282.704C376.102 282.704 369.62 281.996 363.998 276.375C358.376 270.753 357.668 264.27 357.668 261.504H405.668C405.668 256.871 404.494 248.988 397.939 242.433C391.384 235.878 383.501 234.704 378.868 234.704V282.704ZM357.668 261.504V375.856H405.668V261.504H357.668ZM357.668 375.856C357.668 380.302 358.796 388.045 365.258 394.507C371.72 400.968 379.462 402.096 383.908 402.096V354.096C386.861 354.096 393.484 354.85 399.199 360.565C404.914 366.28 405.668 372.903 405.668 375.856H357.668ZM383.908 402.096H402.276V354.096H383.908V402.096ZM426.276 378.096V261.504H378.276V378.096H426.276ZM426.276 261.504C426.276 264.27 425.569 270.753 419.947 276.375C414.325 281.996 407.843 282.704 405.077 282.704V234.704C400.444 234.704 392.561 235.878 386.006 242.433C379.451 248.988 378.276 256.871 378.276 261.504H426.276ZM405.077 282.704H436.773V234.704H405.077V282.704ZM436.773 282.704C434.006 282.704 427.524 281.996 421.902 276.375C416.28 270.753 415.572 264.27 415.572 261.504H463.572C463.572 256.871 462.398 248.988 455.843 242.433C449.288 235.878 441.405 234.704 436.773 234.704V282.704ZM415.572 261.504V405.2H463.572V261.504H415.572ZM415.572 405.2C415.572 402.434 416.28 395.951 421.902 390.329C427.524 384.708 434.006 384 436.773 384V432C441.405 432 449.288 430.826 455.843 424.271C462.398 417.716 463.572 409.833 463.572 405.2H415.572ZM436.773 384H373.156V432H436.773V384ZM460.275 384C463.041 384 469.524 384.708 475.146 390.329C480.767 395.951 481.475 402.434 481.475 405.2H433.475C433.475 409.833 434.649 417.716 441.204 424.271C447.759 430.826 455.642 432 460.275 432V384ZM481.475 405.2V261.504H433.475V405.2H481.475ZM481.475 261.504C481.475 264.27 480.767 270.753 475.146 276.375C469.524 281.996 463.041 282.704 460.275 282.704V234.704C455.642 234.704 447.759 235.878 441.204 242.433C434.649 248.988 433.475 256.871 433.475 261.504H481.475ZM460.275 282.704H491.971V234.704H460.275V282.704ZM491.971 282.704C489.205 282.704 482.722 281.996 477.1 276.375C471.479 270.753 470.771 264.27 470.771 261.504H518.771C518.771 256.871 517.597 248.988 511.042 242.433C504.487 235.878 496.604 234.704 491.971 234.704V282.704ZM470.771 261.504V405.2H518.771V261.504H470.771ZM470.771 405.2C470.771 402.434 471.479 395.951 477.1 390.329C482.722 384.708 489.205 384 491.971 384V432C496.604 432 504.487 430.826 511.042 424.271C517.597 417.716 518.771 409.833 518.771 405.2H470.771ZM491.971 384H460.275V432H491.971V384ZM549.905 378.096H525.905C525.905 391.351 536.65 402.096 549.905 402.096V378.096ZM515.409 384C518.175 384 524.658 384.708 530.279 390.329C535.901 395.951 536.609 402.434 536.609 405.2H488.609C488.609 409.833 489.783 417.716 496.338 424.271C502.893 430.826 510.776 432 515.409 432V384ZM536.609 405.2V261.504H488.609V405.2H536.609ZM536.609 261.504C536.609 264.27 535.901 270.753 530.279 276.375C524.658 281.996 518.175 282.704 515.409 282.704V234.704C510.776 234.704 502.893 235.878 496.338 242.433C489.783 248.988 488.609 256.871 488.609 261.504H536.609ZM515.409 282.704H547.105V234.704H515.409V282.704ZM547.105 282.704C544.339 282.704 537.856 281.996 532.234 276.375C526.613 270.753 525.905 264.27 525.905 261.504H573.905C573.905 256.871 572.73 248.988 566.175 242.433C559.62 235.878 551.738 234.704 547.105 234.704V282.704ZM525.905 261.504V378.096H573.905V261.504H525.905ZM549.905 402.096H578.129V354.096H549.905V402.096ZM578.129 402.096C575.363 402.096 568.88 401.388 563.258 395.767C557.637 390.145 556.929 383.662 556.929 380.896H604.929C604.929 376.263 603.754 368.38 597.199 361.825C590.644 355.27 582.762 354.096 578.129 354.096V402.096ZM556.929 380.896V405.2H604.929V380.896H556.929ZM556.929 405.2C556.929 402.434 557.637 395.951 563.258 390.329C568.88 384.708 575.363 384 578.129 384V432C582.762 432 590.644 430.826 597.199 424.271C603.754 417.716 604.929 409.833 604.929 405.2H556.929ZM578.129 384H515.409V432H578.129V384ZM590.172 298.016L570.56 284.182C570.179 284.722 569.821 285.278 569.486 285.848L590.172 298.016ZM616.716 260.384L597.363 246.191C597.275 246.31 597.189 246.43 597.104 246.55L616.716 260.384ZM660.956 260.384L640.987 273.697C641.113 273.885 641.241 274.072 641.372 274.256L660.956 260.384ZM687.612 298.016L668.028 311.888C668.046 311.914 668.064 311.94 668.083 311.966L687.612 298.016ZM651.436 357.6H675.436C675.436 344.345 664.691 333.6 651.436 333.6V357.6ZM626.46 357.6V333.6C613.205 333.6 602.46 344.345 602.46 357.6H626.46ZM652.78 329.04L634.084 313.992C634.069 314.01 634.054 314.029 634.039 314.047L652.78 329.04ZM652.78 294.432L633.861 309.198C633.994 309.369 634.129 309.538 634.267 309.705L652.78 294.432ZM625.004 294.432L606.308 279.384C606.293 279.402 606.278 279.421 606.263 279.439L625.004 294.432ZM625.004 329.04L606.085 343.806C606.218 343.977 606.353 344.146 606.491 344.313L625.004 329.04ZM591.852 384C594.618 384 601.101 384.708 606.723 390.329C612.344 395.951 613.052 402.434 613.052 405.2H565.052C565.052 409.833 566.227 417.716 572.782 424.271C579.337 430.826 587.219 432 591.852 432V384ZM613.052 405.2V301.376H565.052V405.2H613.052ZM613.052 301.376C613.052 306.347 611.246 309.526 610.859 310.184L569.486 285.848C567.605 289.044 565.052 294.464 565.052 301.376H613.052ZM609.784 311.85L636.328 274.218L597.104 246.55L570.56 284.182L609.784 311.85ZM636.07 274.577C634.234 277.081 631.649 279.339 628.415 280.855C625.279 282.325 622.381 282.704 620.3 282.704V234.704C612.221 234.704 603.336 238.046 597.363 246.191L636.07 274.577ZM620.3 282.704H657.372V234.704H620.3V282.704ZM657.372 282.704C655.513 282.704 652.586 282.389 649.314 280.855C645.859 279.236 642.993 276.706 640.987 273.697L680.925 247.071C674.713 237.752 665.019 234.704 657.372 234.704V282.704ZM641.372 274.256L668.028 311.888L707.197 284.144L680.541 246.512L641.372 274.256ZM668.083 311.966C666.153 309.264 664.732 305.567 664.732 301.376H712.732C712.732 294.796 710.565 288.858 707.142 284.066L668.083 311.966ZM664.732 301.376V405.2H712.732V301.376H664.732ZM664.732 405.2C664.732 402.434 665.44 395.951 671.062 390.329C676.683 384.708 683.166 384 685.932 384V432C690.565 432 698.448 430.826 705.003 424.271C711.558 417.716 712.732 409.833 712.732 405.2H664.732ZM685.932 384H654.236V432H685.932V384ZM654.236 384C657.002 384 663.485 384.708 669.107 390.329C674.728 395.951 675.436 402.434 675.436 405.2H627.436C627.436 409.833 628.611 417.716 635.166 424.271C641.721 430.826 649.603 432 654.236 432V384ZM675.436 405.2V357.6H627.436V405.2H675.436ZM651.436 333.6H626.46V381.6H651.436V333.6ZM602.46 357.6V405.2H650.46V357.6H602.46ZM602.46 405.2C602.46 402.434 603.168 395.951 608.79 390.329C614.411 384.708 620.894 384 623.66 384V432C628.293 432 636.176 430.826 642.731 424.271C649.286 417.716 650.46 409.833 650.46 405.2H602.46ZM623.66 384H591.852V432H623.66V384ZM638.892 357.52C647.557 357.52 661.996 355.938 671.521 344.033L634.039 314.047C636.49 310.985 639.196 309.866 640.148 309.559C640.972 309.293 640.77 309.52 638.892 309.52V357.52ZM671.477 344.088C675.957 338.521 677.989 332.272 679.026 327.402C680.107 322.323 680.476 316.952 680.476 311.68H632.476C632.476 313.243 632.419 314.502 632.334 315.493C632.248 316.492 632.142 317.107 632.078 317.406C632.012 317.72 632.025 317.524 632.252 316.982C632.477 316.443 633.012 315.324 634.084 313.992L671.477 344.088ZM680.476 311.68C680.476 306.414 680.108 301.037 679.02 295.955C677.979 291.101 675.918 284.764 671.293 279.159L634.267 309.705C633.119 308.313 632.541 307.125 632.294 306.541C632.046 305.954 632.022 305.72 632.085 306.013C632.144 306.29 632.249 306.888 632.334 307.88C632.419 308.862 632.476 310.117 632.476 311.68H680.476ZM671.7 279.665C662.227 267.528 647.711 265.84 638.892 265.84V313.84C640.728 313.84 640.867 314.067 639.982 313.775C638.944 313.431 636.251 312.261 633.861 309.198L671.7 279.665ZM638.892 265.84C629.932 265.84 615.775 267.622 606.308 279.384L643.701 309.48C641.407 312.329 638.875 313.439 637.859 313.775C636.995 314.06 637.127 313.84 638.892 313.84V265.84ZM606.263 279.439C601.782 285.041 599.81 291.327 598.818 296.101C597.775 301.122 597.42 306.446 597.42 311.68H645.42C645.42 310.1 645.476 308.823 645.56 307.817C645.646 306.802 645.75 306.175 645.814 305.867C645.882 305.542 645.869 305.743 645.64 306.299C645.415 306.849 644.865 308.025 643.745 309.425L606.263 279.439ZM597.42 311.68C597.42 316.92 597.776 322.238 598.812 327.257C599.801 332.049 601.745 338.246 606.085 343.806L643.924 314.273C644.967 315.611 645.476 316.717 645.681 317.223C645.888 317.734 645.892 317.897 645.821 317.551C645.752 317.221 645.646 316.578 645.561 315.555C645.476 314.541 645.42 313.26 645.42 311.68H597.42ZM606.491 344.313C616.005 355.845 630.084 357.52 638.892 357.52V309.52C637.083 309.52 636.89 309.3 637.692 309.559C638.626 309.86 641.169 310.92 643.517 313.767L606.491 344.313ZM780.817 260.496L763.847 277.467L763.847 277.467L780.817 260.496ZM803.217 282.896L820.188 265.925L820.188 265.925L803.217 282.896ZM803.217 383.696L786.769 366.219C786.592 366.385 786.418 366.554 786.247 366.725L803.217 383.696ZM780.817 406.096L763.847 389.125C763.675 389.297 763.507 389.471 763.341 389.647L780.817 406.096ZM742.625 378.096H718.625C718.625 391.351 729.37 402.096 742.625 402.096V378.096ZM742.625 288.496V264.496C729.37 264.496 718.625 275.241 718.625 288.496H742.625ZM708.017 384C710.783 384 717.266 384.708 722.888 390.329C728.509 395.951 729.217 402.434 729.217 405.2H681.217C681.217 409.833 682.392 417.716 688.947 424.271C695.502 430.826 703.384 432 708.017 432V384ZM729.217 405.2V261.504H681.217V405.2H729.217ZM729.217 261.504C729.217 264.27 728.509 270.753 722.888 276.375C717.266 281.996 710.783 282.704 708.017 282.704V234.704C703.384 234.704 695.502 235.878 688.947 242.433C682.392 248.988 681.217 256.871 681.217 261.504H729.217ZM708.017 282.704H776.337V234.704H708.017V282.704ZM776.337 282.704C774.528 282.704 772.282 282.393 769.888 281.435C767.465 280.466 765.43 279.049 763.847 277.467L797.788 243.525C791.798 237.536 784.066 234.704 776.337 234.704V282.704ZM763.847 277.467L786.247 299.867L820.188 265.925L797.788 243.525L763.847 277.467ZM786.247 299.866C784.937 298.556 783.566 296.728 782.557 294.355C781.54 291.962 781.121 289.552 781.121 287.376H829.121C829.121 278.979 825.731 271.469 820.188 265.925L786.247 299.866ZM781.121 287.376V379.216H829.121V287.376H781.121ZM781.121 379.216C781.121 377.224 781.487 374.811 782.557 372.293C783.634 369.759 785.166 367.728 786.769 366.219L819.666 401.173C825.905 395.301 829.121 387.416 829.121 379.216H781.121ZM786.247 366.725L763.847 389.125L797.788 423.067L820.188 400.667L786.247 366.725ZM763.341 389.647C764.849 388.045 766.881 386.513 769.414 385.436C771.932 384.366 774.346 384 776.337 384V432C784.537 432 792.422 428.784 798.294 422.545L763.341 389.647ZM776.337 384H708.017V432H776.337V384ZM742.625 402.096H763.121V354.096H742.625V402.096ZM763.121 402.096C770.545 402.096 779.602 399.257 785.849 390.928C791.122 383.897 791.825 376.222 791.825 371.824H743.825C743.825 371.607 743.744 367.068 747.449 362.128C749.475 359.428 752.219 357.201 755.432 355.773C758.506 354.406 761.264 354.096 763.121 354.096V402.096ZM791.825 371.824V294.88H743.825V371.824H791.825ZM791.825 294.88C791.825 290.51 791.146 282.878 785.971 275.855C779.787 267.463 770.706 264.496 763.121 264.496V312.496C761.212 312.496 758.401 312.17 755.287 310.762C752.038 309.292 749.313 307.023 747.328 304.329C743.721 299.434 743.825 294.994 743.825 294.88H791.825ZM763.121 264.496H742.625V312.496H763.121V264.496ZM718.625 288.496V378.096H766.625V288.496H718.625ZM846.47 406.096L863.441 389.125L863.441 389.125L846.47 406.096ZM824.07 383.696L841.041 366.725C840.869 366.554 840.695 366.385 840.519 366.219L824.07 383.696ZM824.07 282.896L807.1 265.925L807.1 265.925L824.07 282.896ZM846.47 260.496L830.021 243.019C829.845 243.185 829.671 243.354 829.5 243.525L846.47 260.496ZM899.446 260.496L916.417 243.525L899.446 260.496ZM921.846 383.696L905.398 366.219C905.221 366.385 905.047 366.554 904.876 366.725L921.846 383.696ZM899.446 406.096L882.476 389.125C882.304 389.297 882.136 389.471 881.969 389.647L899.446 406.096ZM850.95 384C853.126 384 855.536 384.419 857.93 385.436C860.302 386.444 862.131 387.815 863.441 389.125L829.5 423.067C835.043 428.61 842.554 432 850.95 432V384ZM863.441 389.125L841.041 366.725L807.1 400.667L829.5 423.067L863.441 389.125ZM840.519 366.219C842.122 367.728 843.654 369.759 844.73 372.293C845.8 374.811 846.166 377.224 846.166 379.216H798.166C798.166 387.416 801.383 395.301 807.622 401.173L840.519 366.219ZM846.166 379.216V287.376H798.166V379.216H846.166ZM846.166 287.376C846.166 289.552 845.747 291.962 844.73 294.355C843.722 296.728 842.351 298.557 841.041 299.867L807.1 265.925C801.557 271.469 798.166 278.979 798.166 287.376H846.166ZM841.041 299.867L863.441 277.467L829.5 243.525L807.1 265.925L841.041 299.867ZM862.919 277.973C861.549 279.262 859.725 280.528 857.456 281.435C855.18 282.346 852.936 282.704 850.95 282.704V234.704C843.018 234.704 835.668 237.704 830.021 243.019L862.919 277.973ZM850.95 282.704H894.966V234.704H850.95V282.704ZM894.966 282.704C893.157 282.704 890.911 282.393 888.517 281.435C886.094 280.466 884.059 279.049 882.476 277.467L916.417 243.525C910.427 237.536 902.695 234.704 894.966 234.704V282.704ZM882.476 277.467L904.876 299.867L938.817 265.925L916.417 243.525L882.476 277.467ZM904.876 299.867C903.566 298.557 902.195 296.728 901.186 294.355C900.169 291.962 899.75 289.552 899.75 287.376H947.75C947.75 278.979 944.36 271.469 938.817 265.925L904.876 299.867ZM899.75 287.376V379.216H947.75V287.376H899.75ZM899.75 379.216C899.75 377.224 900.116 374.811 901.186 372.293C902.263 369.759 903.795 367.727 905.398 366.219L938.295 401.173C944.534 395.301 947.75 387.416 947.75 379.216H899.75ZM904.876 366.725L882.476 389.125L916.417 423.067L938.817 400.667L904.876 366.725ZM881.969 389.647C883.478 388.045 885.51 386.513 888.043 385.436C890.561 384.366 892.975 384 894.966 384V432C903.166 432 911.051 428.784 916.923 422.545L881.969 389.647ZM894.966 384H850.95V432H894.966V384ZM864.166 402.096H881.75V354.096H864.166V402.096ZM881.75 402.096C889.174 402.096 898.231 399.257 904.478 390.928C909.751 383.897 910.454 376.222 910.454 371.824H862.454C862.454 371.607 862.373 367.068 866.078 362.128C868.104 359.428 870.848 357.201 874.061 355.773C877.135 354.406 879.893 354.096 881.75 354.096V402.096ZM910.454 371.824V294.88H862.454V371.824H910.454ZM910.454 294.88C910.454 290.51 909.775 282.878 904.6 275.855C898.416 267.463 889.335 264.496 881.75 264.496V312.496C879.841 312.496 877.03 312.17 873.916 310.762C870.667 309.292 867.942 307.023 865.957 304.329C862.35 299.434 862.454 294.994 862.454 294.88H910.454ZM881.75 264.496H864.166V312.496H881.75V264.496ZM864.166 264.496C856.394 264.496 847.314 267.632 841.239 276.078C836.215 283.062 835.574 290.595 835.574 294.88H883.574C883.574 294.909 883.699 299.25 880.206 304.106C878.267 306.801 875.558 309.137 872.248 310.67C869.068 312.144 866.168 312.496 864.166 312.496V264.496ZM835.574 294.88V371.824H883.574V294.88H835.574ZM835.574 371.824C835.574 376.134 836.237 383.711 841.358 390.706C847.499 399.095 856.56 402.096 864.166 402.096V354.096C866.114 354.096 868.96 354.431 872.102 355.861C875.378 357.353 878.107 359.646 880.087 362.35C883.677 367.254 883.574 371.695 883.574 371.824H835.574ZM1009.6 260.16L1026.49 243.115C1025.93 242.559 1025.34 242.031 1024.73 241.533L1009.6 260.16ZM1035.36 285.696L1018.46 302.741C1018.71 302.984 1018.96 303.222 1019.21 303.455L1035.36 285.696ZM1036.81 287.6L1013.74 294.193C1014.01 295.167 1014.35 296.123 1014.75 297.054L1036.81 287.6ZM1036.03 323.44L1052.76 340.644C1052.84 340.566 1052.92 340.489 1053 340.411L1036.03 323.44ZM1023.71 335.424L1039.36 353.619C1039.73 353.299 1040.09 352.969 1040.44 352.628L1023.71 335.424ZM1013.29 344.384L997.641 326.189C988.049 334.441 986.51 348.721 994.124 358.826L1013.29 344.384ZM1025.61 360.736L1047.36 350.582C1046.65 349.067 1045.79 347.63 1044.78 346.294L1025.61 360.736ZM1038.27 387.84L1060.2 378.093C1060.14 377.956 1060.08 377.821 1060.01 377.686L1038.27 387.84ZM1038.94 389.856L1015.51 395.062C1015.76 396.157 1016.07 397.233 1016.47 398.283L1038.94 389.856ZM1003.55 405.76L980.854 413.567C980.982 413.939 981.119 414.308 981.265 414.673L1003.55 405.76ZM985.516 353.344L1008.21 345.537C1004.88 335.848 995.762 329.344 985.516 329.344V353.344ZM977.116 353.344V329.344C963.862 329.344 953.116 340.089 953.116 353.344H977.116ZM1002.09 322.096L1020.09 337.975C1020.16 337.889 1020.24 337.802 1020.31 337.715L1002.09 322.096ZM1002.09 292.976L983.87 308.595C983.945 308.682 984.02 308.769 984.096 308.855L1002.09 292.976ZM976.78 292.976L994.515 309.146C994.593 309.061 994.67 308.975 994.747 308.889L976.78 292.976ZM976.78 322.096L958.814 338.009C958.891 338.095 958.968 338.181 959.046 338.266L976.78 322.096ZM944.412 384C947.179 384 953.661 384.708 959.283 390.329C964.905 395.951 965.612 402.434 965.612 405.2H917.612C917.612 409.833 918.787 417.716 925.342 424.271C931.897 430.826 939.78 432 944.412 432V384ZM965.612 405.2V261.504H917.612V405.2H965.612ZM965.612 261.504C965.612 264.27 964.905 270.753 959.283 276.375C953.661 281.996 947.179 282.704 944.412 282.704V234.704C939.78 234.704 931.897 235.878 925.342 242.433C918.787 248.988 917.612 256.871 917.612 261.504H965.612ZM944.412 282.704H1005.12V234.704H944.412V282.704ZM1005.12 282.704C1002.35 282.704 998.228 281.847 994.462 278.787L1024.73 241.533C1018.58 236.532 1011.47 234.704 1005.12 234.704V282.704ZM992.7 277.204L1018.46 302.741L1052.25 268.651L1026.49 243.115L992.7 277.204ZM1019.21 303.455C1018.93 303.202 1018.17 302.484 1017.27 301.311C1016.47 300.262 1014.78 297.842 1013.74 294.193L1059.89 281.007C1057.78 273.615 1052.83 269.145 1051.5 267.937L1019.21 303.455ZM1014.75 297.054C1013.67 294.525 1013.36 292.483 1013.27 291.74C1013.15 290.837 1013.15 290.258 1013.15 290.176H1061.15C1061.15 288.526 1061.15 283.451 1058.87 278.146L1014.75 297.054ZM1013.15 290.176V320.864H1061.15V290.176H1013.15ZM1013.15 320.864C1013.15 318.18 1013.68 315.368 1014.86 312.667C1016.02 310.004 1017.57 307.955 1019.06 306.469L1053 340.411C1057.81 335.599 1061.15 328.791 1061.15 320.864H1013.15ZM1019.29 306.236L1006.97 318.22L1040.44 352.628L1052.76 340.644L1019.29 306.236ZM1008.06 317.229L997.641 326.189L1028.94 362.579L1039.36 353.619L1008.06 317.229ZM994.124 358.826L1006.44 375.178L1044.78 346.294L1032.46 329.942L994.124 358.826ZM1003.87 370.89L1016.52 397.994L1060.01 377.686L1047.36 350.582L1003.87 370.89ZM1016.34 397.587C1016.03 396.898 1015.73 396.052 1015.51 395.062L1062.37 384.65C1061.85 382.316 1061.1 380.126 1060.2 378.093L1016.34 397.587ZM1016.47 398.283C1015.36 395.335 1015.28 393.003 1015.28 392.096H1063.28C1063.28 389.397 1062.97 385.571 1061.41 381.429L1016.47 398.283ZM1015.28 392.096V405.2H1063.28V392.096H1015.28ZM1015.28 405.2C1015.28 402.434 1015.98 395.951 1021.61 390.329C1027.23 384.708 1033.71 384 1036.48 384V432C1041.11 432 1048.99 430.826 1055.55 424.271C1062.1 417.716 1063.28 409.833 1063.28 405.2H1015.28ZM1036.48 384H1006.91V432H1036.48V384ZM1006.91 384C1009.77 384 1013.97 384.686 1018.15 387.471C1022.36 390.28 1024.69 393.981 1025.83 396.847L981.265 414.673C983.009 419.032 986.19 423.853 991.524 427.409C996.82 430.94 1002.4 432 1006.91 432V384ZM1026.24 397.953L1008.21 345.537L962.822 361.151L980.854 413.567L1026.24 397.953ZM985.516 329.344H977.116V377.344H985.516V329.344ZM953.116 353.344V405.2H1001.12V353.344H953.116ZM953.116 405.2C953.116 402.434 953.824 395.951 959.446 390.329C965.068 384.708 971.55 384 974.316 384V432C978.949 432 986.832 430.826 993.387 424.271C999.942 417.716 1001.12 409.833 1001.12 405.2H953.116ZM974.316 384H944.412V432H974.316V384ZM989.436 349.904C997.238 349.904 1010.69 348.628 1020.09 337.975L984.096 306.217C986.703 303.262 989.426 302.243 990.333 301.97C991.172 301.717 991.065 301.904 989.436 301.904V349.904ZM1020.31 337.715C1028.62 328.026 1029.45 315.271 1029.45 307.536H981.452C981.452 308.692 981.406 309.567 981.347 310.196C981.287 310.834 981.225 311.11 981.227 311.099C981.227 311.099 981.332 310.633 981.676 309.867C982.024 309.095 982.689 307.855 983.87 306.477L1020.31 337.715ZM1029.45 307.536C1029.45 302.855 1029.1 297.905 1028 293.123C1026.93 288.509 1024.8 282.439 1020.09 277.097L984.096 308.855C982.809 307.396 982.087 306.067 981.714 305.245C981.343 304.429 981.229 303.926 981.227 303.917C981.222 303.895 981.285 304.17 981.346 304.82C981.406 305.461 981.452 306.354 981.452 307.536H1029.45ZM1020.31 277.357C1010.95 266.434 997.395 265.056 989.436 265.056V313.056C991.018 313.056 991.057 313.243 990.148 312.961C989.143 312.65 986.422 311.571 983.87 308.595L1020.31 277.357ZM989.436 265.056C981.32 265.056 968.142 266.532 958.814 277.063L994.747 308.889C992.313 311.636 989.768 312.656 988.781 312.961C987.895 313.236 987.926 313.056 989.436 313.056V265.056ZM959.046 276.806C954.189 282.132 951.954 288.244 950.831 292.953C949.674 297.804 949.308 302.817 949.308 307.536H997.308C997.308 306.375 997.356 305.507 997.415 304.894C997.475 304.271 997.536 304.03 997.522 304.087C997.511 304.133 997.382 304.671 996.985 305.517C996.583 306.373 995.83 307.705 994.515 309.146L959.046 276.806ZM949.308 307.536C949.308 315.37 950.2 328.283 958.814 338.009L994.747 306.183C995.954 307.546 996.65 308.792 997.024 309.597C997.394 310.392 997.513 310.892 997.522 310.929C997.533 310.975 997.473 310.731 997.414 310.122C997.355 309.521 997.308 308.671 997.308 307.536H949.308ZM959.046 338.266C968.404 348.531 981.476 349.904 989.436 349.904V301.904C987.878 301.904 987.779 301.724 988.595 301.97C989.489 302.239 992.031 303.202 994.515 305.926L959.046 338.266Z" fill="#FEFEFE" mask="url(#path-5-outside-2_3_6749)"/>
<path d="M32.456 408C30.5893 408 29.656 407.067 29.656 405.2V301.376C29.656 300.405 30.0293 299.285 30.776 298.016L57.32 260.384C58.1413 259.264 59.336 258.704 60.904 258.704H97.976C99.6187 258.704 100.813 259.264 101.56 260.384L128.216 298.016C128.963 299.061 129.336 300.181 129.336 301.376V405.2C129.336 407.067 128.403 408 126.536 408H94.84C92.9733 408 92.04 407.067 92.04 405.2V357.6H67.064V405.2C67.064 407.067 66.1307 408 64.264 408H32.456ZM79.496 333.52C86.3653 333.52 90.9947 332.027 93.384 329.04C95.848 325.979 97.08 320.192 97.08 311.68C97.08 303.168 95.848 297.419 93.384 294.432C90.9947 291.371 86.3653 289.84 79.496 289.84C72.7013 289.84 68.072 291.371 65.608 294.432C63.2187 297.419 62.024 303.168 62.024 311.68C62.024 320.192 63.2187 325.979 65.608 329.04C68.072 332.027 72.7013 333.52 79.496 333.52ZM149.405 408C147.538 408 146.605 407.067 146.605 405.2V261.504C146.605 259.637 147.538 258.704 149.405 258.704H181.101C182.968 258.704 183.901 259.637 183.901 261.504V378.096H212.125C213.992 378.096 214.925 379.029 214.925 380.896V405.2C214.925 407.067 213.992 408 212.125 408H149.405ZM252.617 408C250.825 408 249.331 407.365 248.137 406.096L225.737 383.696C224.467 382.501 223.833 381.008 223.833 379.216V287.376C223.833 285.659 224.467 284.165 225.737 282.896L248.137 260.496C249.331 259.301 250.825 258.704 252.617 258.704H297.753C299.47 258.704 300.963 259.301 302.233 260.496L324.633 282.896C325.902 284.165 326.537 285.659 326.537 287.376V379.216C326.537 381.008 325.902 382.501 324.633 383.696L302.233 406.096C300.963 407.365 299.47 408 297.753 408H252.617ZM264.489 426.704C262.622 426.704 261.689 425.771 261.689 423.904V408H290.249L295.177 422.336C295.55 423.456 295.363 424.464 294.617 425.36C293.945 426.256 293.049 426.704 291.929 426.704H264.489ZM267.289 378.096H282.969C286.105 378.096 287.673 376.005 287.673 371.824V294.88C287.673 290.624 286.105 288.496 282.969 288.496H267.289C264.227 288.496 262.697 290.624 262.697 294.88V371.824C262.697 376.005 264.227 378.096 267.289 378.096ZM373.156 408C371.364 408 369.871 407.365 368.676 406.096L346.276 383.696C345.007 382.501 344.372 381.008 344.372 379.216V261.504C344.372 259.637 345.306 258.704 347.172 258.704H378.868C380.735 258.704 381.668 259.637 381.668 261.504V375.856C381.668 377.349 382.415 378.096 383.908 378.096H402.276V261.504C402.276 259.637 403.21 258.704 405.077 258.704H436.773C438.639 258.704 439.572 259.637 439.572 261.504V405.2C439.572 407.067 438.639 408 436.773 408H373.156ZM460.275 408C458.408 408 457.475 407.067 457.475 405.2V261.504C457.475 259.637 458.408 258.704 460.275 258.704H491.971C493.838 258.704 494.771 259.637 494.771 261.504V405.2C494.771 407.067 493.838 408 491.971 408H460.275ZM515.409 408C513.542 408 512.609 407.067 512.609 405.2V261.504C512.609 259.637 513.542 258.704 515.409 258.704H547.105C548.971 258.704 549.905 259.637 549.905 261.504V378.096H578.129C579.995 378.096 580.929 379.029 580.929 380.896V405.2C580.929 407.067 579.995 408 578.129 408H515.409ZM591.852 408C589.986 408 589.052 407.067 589.052 405.2V301.376C589.052 300.405 589.426 299.285 590.172 298.016L616.716 260.384C617.538 259.264 618.732 258.704 620.3 258.704H657.372C659.015 258.704 660.21 259.264 660.956 260.384L687.612 298.016C688.359 299.061 688.732 300.181 688.732 301.376V405.2C688.732 407.067 687.799 408 685.932 408H654.236C652.37 408 651.436 407.067 651.436 405.2V357.6H626.46V405.2C626.46 407.067 625.527 408 623.66 408H591.852ZM638.892 333.52C645.762 333.52 650.391 332.027 652.78 329.04C655.244 325.979 656.476 320.192 656.476 311.68C656.476 303.168 655.244 297.419 652.78 294.432C650.391 291.371 645.762 289.84 638.892 289.84C632.098 289.84 627.468 291.371 625.004 294.432C622.615 297.419 621.42 303.168 621.42 311.68C621.42 320.192 622.615 325.979 625.004 329.04C627.468 332.027 632.098 333.52 638.892 333.52ZM708.017 408C706.151 408 705.217 407.067 705.217 405.2V261.504C705.217 259.637 706.151 258.704 708.017 258.704H776.337C778.129 258.704 779.623 259.301 780.817 260.496L803.217 282.896C804.487 284.165 805.121 285.659 805.121 287.376V379.216C805.121 381.008 804.487 382.501 803.217 383.696L780.817 406.096C779.623 407.365 778.129 408 776.337 408H708.017ZM742.625 378.096H763.121C766.257 378.096 767.825 376.005 767.825 371.824V294.88C767.825 290.624 766.257 288.496 763.121 288.496H742.625V378.096ZM850.95 408C849.233 408 847.74 407.365 846.47 406.096L824.07 383.696C822.801 382.501 822.166 381.008 822.166 379.216V287.376C822.166 285.659 822.801 284.165 824.07 282.896L846.47 260.496C847.74 259.301 849.233 258.704 850.95 258.704H894.966C896.758 258.704 898.252 259.301 899.446 260.496L921.846 282.896C923.116 284.165 923.75 285.659 923.75 287.376V379.216C923.75 381.008 923.116 382.501 921.846 383.696L899.446 406.096C898.252 407.365 896.758 408 894.966 408H850.95ZM864.166 378.096H881.75C884.886 378.096 886.454 376.005 886.454 371.824V294.88C886.454 290.624 884.886 288.496 881.75 288.496H864.166C861.105 288.496 859.574 290.624 859.574 294.88V371.824C859.574 376.005 861.105 378.096 864.166 378.096ZM944.412 408C942.546 408 941.612 407.067 941.612 405.2V261.504C941.612 259.637 942.546 258.704 944.412 258.704H1005.12C1006.91 258.704 1008.4 259.189 1009.6 260.16L1035.36 285.696C1036.18 286.443 1036.66 287.077 1036.81 287.6C1037.04 288.123 1037.15 288.981 1037.15 290.176V320.864C1037.15 321.835 1036.78 322.693 1036.03 323.44L1023.71 335.424L1013.29 344.384L1025.61 360.736L1038.27 387.84C1038.57 388.512 1038.79 389.184 1038.94 389.856C1039.16 390.453 1039.28 391.2 1039.28 392.096V405.2C1039.28 407.067 1038.34 408 1036.48 408H1006.91C1005.27 408 1004.15 407.253 1003.55 405.76L985.516 353.344H977.116V405.2C977.116 407.067 976.183 408 974.316 408H944.412ZM989.436 325.904C995.634 325.904 999.852 324.635 1002.09 322.096C1004.33 319.483 1005.45 314.629 1005.45 307.536C1005.45 300.368 1004.33 295.515 1002.09 292.976C999.852 290.363 995.634 289.056 989.436 289.056C983.314 289.056 979.095 290.363 976.78 292.976C974.466 295.515 973.308 300.368 973.308 307.536C973.308 314.629 974.466 319.483 976.78 322.096C979.095 324.635 983.314 325.904 989.436 325.904Z" fill="#C93434"/>
</g>
</g>
<defs>
<filter id="filter0_d_3_6749" x="0.655762" y="49.7041" width="1069.62" height="412" filterUnits="userSpaceOnUse" color-interpolation-filters="sRGB">
<feFlood flood-opacity="0" result="BackgroundImageFix"/>
<feColorMatrix in="SourceAlpha" type="matrix" values="0 0 0 0 0 0 0 0 0 0 0 0 0 0 0 0 0 0 127 0" result="hardAlpha"/>
<feOffset dx="1" dy="5"/>
<feGaussianBlur stdDeviation="3"/>
<feComposite in2="hardAlpha" operator="out"/>
<feColorMatrix type="matrix" values="0 0 0 0 0 0 0 0 0 0 0 0 0 0 0 0 0 0 0.25 0"/>
<feBlend mode="normal" in2="BackgroundImageFix" result="effect1_dropShadow_3_6749"/>
<feBlend mode="normal" in="SourceGraphic" in2="effect1_dropShadow_3_6749" result="shape"/>
</filter>
<filter id="filter1_d_3_6749" x="0.655762" y="49.7041" width="1069.62" height="412" filterUnits="userSpaceOnUse" color-interpolation-filters="sRGB">
<feFlood flood-opacity="0" result="BackgroundImageFix"/>
<feColorMatrix in="SourceAlpha" type="matrix" values="0 0 0 0 0 0 0 0 0 0 0 0 0 0 0 0 0 0 127 0" result="hardAlpha"/>
<feOffset dx="1" dy="5"/>
<feGaussianBlur stdDeviation="3"/>
<feComposite in2="hardAlpha" operator="out"/>
<feColorMatrix type="matrix" values="0 0 0 0 0 0 0 0 0 0 0 0 0 0 0 0 0 0 0.25 0"/>
<feBlend mode="normal" in2="BackgroundImageFix" result="effect1_dropShadow_3_6749"/>
<feBlend mode="normal" in="SourceGraphic" in2="effect1_dropShadow_3_6749" result="shape"/>
</filter>
</defs>
</svg>
